<?xml version="1.0" encoding="UTF-8" standalone="no"?>
<svg
   xmlns:dc="http://purl.org/dc/elements/1.1/"
   xmlns:cc="http://creativecommons.org/ns#"
   xmlns:rdf="http://www.w3.org/1999/02/22-rdf-syntax-ns#"
   xmlns:svg="http://www.w3.org/2000/svg"
   xmlns="http://www.w3.org/2000/svg"
   xmlns:sodipodi="http://sodipodi.sourceforge.net/DTD/sodipodi-0.dtd"
   xmlns:inkscape="http://www.inkscape.org/namespaces/inkscape"
   width="46mm"
   height="24.5mm"
   viewBox="0 0 46 24.5"
   version="1.1"
   id="svg8"
   inkscape:version="1.0rc1 (09960d6, 2020-04-09)"
   sodipodi:docname="Futaba_R7008SB.svg">
  <title
     id="title108">Futaba Corporation R7008SB FASSTest Telemetry Receiver</title>
  <defs
     id="defs2" />
  <sodipodi:namedview
     fit-margin-bottom="0"
     fit-margin-right="0"
     fit-margin-left="0"
     fit-margin-top="0"
     id="base"
     pagecolor="#ffffff"
     bordercolor="#666666"
     borderopacity="1.0"
     inkscape:pageopacity="0.0"
     inkscape:pageshadow="2"
     inkscape:zoom="4"
     inkscape:cx="74.01987"
     inkscape:cy="94.942226"
     inkscape:document-units="mm"
     inkscape:current-layer="layer1"
     inkscape:document-rotation="0"
     showgrid="false"
     inkscape:window-width="1680"
     inkscape:window-height="982"
     inkscape:window-x="0"
     inkscape:window-y="23"
     inkscape:window-maximized="0" />
  <metadata
     id="metadata5">
    <rdf:RDF>
      <cc:Work
         rdf:about="">
        <dc:format>image/svg+xml</dc:format>
        <dc:type
           rdf:resource="http://purl.org/dc/dcmitype/StillImage" />
        <dc:title>Futaba Corporation R7008SB FASSTest Telemetry Receiver</dc:title>
        <cc:license
           rdf:resource="http://creativecommons.org/publicdomain/zero/1.0/" />
        <dc:creator>
          <cc:Agent>
            <dc:title>8ga3</dc:title>
          </cc:Agent>
        </dc:creator>
      </cc:Work>
      <cc:License
         rdf:about="http://creativecommons.org/publicdomain/zero/1.0/">
        <cc:permits
           rdf:resource="http://creativecommons.org/ns#Reproduction" />
        <cc:permits
           rdf:resource="http://creativecommons.org/ns#Distribution" />
        <cc:permits
           rdf:resource="http://creativecommons.org/ns#DerivativeWorks" />
      </cc:License>
    </rdf:RDF>
  </metadata>
  <g
     transform="translate(-17.991667,-17.4625)"
     inkscape:label="レイヤー 1"
     id="layer1"
     inkscape:groupmode="layer">
    <rect
       style="fill:#221f20;fill-opacity:1;fill-rule:evenodd;stroke-width:0.264583"
       id="rect10"
       width="46"
       height="24.5"
       x="17.991667"
       y="17.4625"
       inkscape:label="Base" />
    <g
       id="g1282"
       inkscape:label="PWM">
      <g
         inkscape:label="PWM Socket"
         id="g1235">
        <path
           inkscape:label="Channel8"
           inkscape:connector-curvature="0"
           id="path1057"
           d="m 50.545925,40.744251 h 8.417056 v -2.75107 h -9.35107 v 1.200737 h 0.934016 z"
           style="fill:#969696;fill-opacity:1;stroke:#000000;stroke-width:0.248931;stroke-linecap:butt;stroke-linejoin:miter;stroke-miterlimit:4;stroke-dasharray:none;stroke-opacity:1" />
        <path
           style="fill:#969696;fill-opacity:1;stroke:#000000;stroke-width:0.248931;stroke-linecap:butt;stroke-linejoin:miter;stroke-miterlimit:4;stroke-dasharray:none;stroke-opacity:1"
           d="m 50.545925,37.993181 h 8.417056 v -2.75107 h -9.35107 v 1.200737 h 0.934016 z"
           id="path1069"
           inkscape:connector-curvature="0"
           inkscape:label="Channel7" />
        <path
           inkscape:label="Channel6"
           inkscape:connector-curvature="0"
           id="path1081"
           d="m 50.545925,35.242111 h 8.417056 v -2.75107 h -9.35107 v 1.200737 h 0.934016 z"
           style="fill:#969696;fill-opacity:1;stroke:#000000;stroke-width:0.248931;stroke-linecap:butt;stroke-linejoin:miter;stroke-miterlimit:4;stroke-dasharray:none;stroke-opacity:1" />
        <path
           style="fill:#969696;fill-opacity:1;stroke:#000000;stroke-width:0.248931;stroke-linecap:butt;stroke-linejoin:miter;stroke-miterlimit:4;stroke-dasharray:none;stroke-opacity:1"
           d="m 50.545925,32.491041 h 8.417056 v -2.75107 h -9.35107 v 1.200737 h 0.934016 z"
           id="path1093"
           inkscape:connector-curvature="0"
           inkscape:label="Channel5" />
        <path
           inkscape:label="Channel4"
           inkscape:connector-curvature="0"
           id="path1105"
           d="m 50.545925,29.739971 h 8.417056 v -2.75107 h -9.35107 v 1.200737 h 0.934016 z"
           style="fill:#969696;fill-opacity:1;stroke:#000000;stroke-width:0.248931;stroke-linecap:butt;stroke-linejoin:miter;stroke-miterlimit:4;stroke-dasharray:none;stroke-opacity:1" />
        <path
           style="fill:#969696;fill-opacity:1;stroke:#000000;stroke-width:0.248931;stroke-linecap:butt;stroke-linejoin:miter;stroke-miterlimit:4;stroke-dasharray:none;stroke-opacity:1"
           d="m 50.545925,26.988901 h 8.417056 v -2.75107 h -9.35107 v 1.200737 h 0.934016 z"
           id="path1117"
           inkscape:connector-curvature="0"
           inkscape:label="Channel3" />
        <path
           inkscape:label="Channel2"
           inkscape:connector-curvature="0"
           id="path1129"
           d="m 50.545925,24.237831 h 8.417056 v -2.75107 h -9.35107 v 1.200737 h 0.934016 z"
           style="fill:#969696;fill-opacity:1;stroke:#000000;stroke-width:0.248931;stroke-linecap:butt;stroke-linejoin:miter;stroke-miterlimit:4;stroke-dasharray:none;stroke-opacity:1" />
        <path
           style="fill:#969696;fill-opacity:1;stroke:#000000;stroke-width:0.248931;stroke-linecap:butt;stroke-linejoin:miter;stroke-miterlimit:4;stroke-dasharray:none;stroke-opacity:1"
           d="m 50.545925,21.486761 h 8.417056 v -2.75107 h -9.35107 v 1.200737 h 0.934016 z"
           id="path1141"
           inkscape:connector-curvature="0"
           inkscape:label="Channel1" />
        <rect
           y="19.083071"
           x="50.669998"
           height="20.53828"
           width="8.165"
           id="rect1237"
           style="fill:#969696;fill-opacity:1;stroke:none;stroke-width:0.517704;stroke-miterlimit:4;stroke-dasharray:none;stroke-opacity:1" />
      </g>
      <g
         inkscape:label="Channelpin"
         id="g1225">
        <g
           id="g1065"
           inkscape:label="Channel8pin"
           transform="rotate(-90,59.492148,41.273418)">
          <circle
             inkscape:label="connector26pin"
             cy="33.977001"
             cx="61.400002"
             id="circle1059"
             style="fill:#ffffff;fill-opacity:1;stroke-width:0.264999;stroke-miterlimit:4;stroke-dasharray:none"
             r="0.5" />
          <circle
             style="fill:#ffffff;fill-opacity:1;stroke-width:0.264999;stroke-miterlimit:4;stroke-dasharray:none"
             id="circle1061"
             cx="61.400002"
             cy="36.517002"
             inkscape:label="connector25pin"
             r="0.5" />
          <circle
             style="fill:#ffffff;fill-opacity:1;stroke:none;stroke-width:0.264999;stroke-miterlimit:4;stroke-dasharray:none;stroke-opacity:1"
             id="circle1063"
             cx="61.400002"
             cy="39.056999"
             inkscape:label="connector24pin"
             r="0.5" />
        </g>
        <g
           inkscape:label="Channel7pin"
           id="g1077"
           transform="rotate(-90,58.116613,39.897883)">
          <circle
             r="0.5"
             style="fill:#ffffff;fill-opacity:1;stroke-width:0.264999;stroke-miterlimit:4;stroke-dasharray:none"
             id="circle1071"
             cx="61.400002"
             cy="33.977001"
             inkscape:label="connector23pin" />
          <circle
             r="0.5"
             inkscape:label="connector22pin"
             cy="36.517002"
             cx="61.400002"
             id="circle1073"
             style="fill:#ffffff;fill-opacity:1;stroke-width:0.264999;stroke-miterlimit:4;stroke-dasharray:none" />
          <circle
             r="0.5"
             inkscape:label="connector21pin"
             cy="39.056999"
             cx="61.400002"
             id="circle1075"
             style="fill:#ffffff;fill-opacity:1;stroke:none;stroke-width:0.264999;stroke-miterlimit:4;stroke-dasharray:none;stroke-opacity:1" />
        </g>
        <g
           id="g1089"
           inkscape:label="Channel6pin"
           transform="rotate(-90,56.741078,38.522348)">
          <circle
             inkscape:label="connector20pin"
             cy="33.977001"
             cx="61.400002"
             id="circle1083"
             style="fill:#ffffff;fill-opacity:1;stroke-width:0.264999;stroke-miterlimit:4;stroke-dasharray:none"
             r="0.5" />
          <circle
             style="fill:#ffffff;fill-opacity:1;stroke-width:0.264999;stroke-miterlimit:4;stroke-dasharray:none"
             id="circle1085"
             cx="61.400002"
             cy="36.517002"
             inkscape:label="connector19pin"
             r="0.5" />
          <circle
             style="fill:#ffffff;fill-opacity:1;stroke:none;stroke-width:0.264999;stroke-miterlimit:4;stroke-dasharray:none;stroke-opacity:1"
             id="circle1087"
             cx="61.400002"
             cy="39.056999"
             inkscape:label="connector18pin"
             r="0.5" />
        </g>
        <g
           inkscape:label="Channel5pin"
           id="g1101"
           transform="rotate(-90,55.365543,37.146813)">
          <circle
             r="0.5"
             style="fill:#ffffff;fill-opacity:1;stroke-width:0.264999;stroke-miterlimit:4;stroke-dasharray:none"
             id="circle1095"
             cx="61.400002"
             cy="33.977001"
             inkscape:label="connector17pin" />
          <circle
             r="0.5"
             inkscape:label="connector16pin"
             cy="36.517002"
             cx="61.400002"
             id="circle1097"
             style="fill:#ffffff;fill-opacity:1;stroke-width:0.264999;stroke-miterlimit:4;stroke-dasharray:none" />
          <circle
             r="0.5"
             inkscape:label="connector15pin"
             cy="39.056999"
             cx="61.400002"
             id="circle1099"
             style="fill:#ffffff;fill-opacity:1;stroke:none;stroke-width:0.264999;stroke-miterlimit:4;stroke-dasharray:none;stroke-opacity:1" />
        </g>
        <g
           id="g1113"
           inkscape:label="Channel4pin"
           transform="rotate(-90,53.990008,35.771278)">
          <circle
             inkscape:label="connector14pin"
             cy="33.977001"
             cx="61.400002"
             id="circle1107"
             style="fill:#ffffff;fill-opacity:1;stroke-width:0.264999;stroke-miterlimit:4;stroke-dasharray:none"
             r="0.5" />
          <circle
             style="fill:#ffffff;fill-opacity:1;stroke-width:0.264999;stroke-miterlimit:4;stroke-dasharray:none"
             id="circle1109"
             cx="61.400002"
             cy="36.517002"
             inkscape:label="connector13pin"
             r="0.5" />
          <circle
             style="fill:#ffffff;fill-opacity:1;stroke:none;stroke-width:0.264999;stroke-miterlimit:4;stroke-dasharray:none;stroke-opacity:1"
             id="circle1111"
             cx="61.400002"
             cy="39.056999"
             inkscape:label="connector12pin"
             r="0.5" />
        </g>
        <g
           inkscape:label="Channel3pin"
           id="g1125"
           transform="rotate(-90,52.614473,34.395743)">
          <circle
             r="0.5"
             style="fill:#ffffff;fill-opacity:1;stroke-width:0.264999;stroke-miterlimit:4;stroke-dasharray:none"
             id="circle1119"
             cx="61.400002"
             cy="33.977001"
             inkscape:label="connector11pin" />
          <circle
             r="0.5"
             inkscape:label="connector10pin"
             cy="36.517002"
             cx="61.400002"
             id="circle1121"
             style="fill:#ffffff;fill-opacity:1;stroke-width:0.264999;stroke-miterlimit:4;stroke-dasharray:none" />
          <circle
             r="0.5"
             inkscape:label="connector9pin"
             cy="39.056999"
             cx="61.400002"
             id="circle1123"
             style="fill:#ffffff;fill-opacity:1;stroke:none;stroke-width:0.264999;stroke-miterlimit:4;stroke-dasharray:none;stroke-opacity:1" />
        </g>
        <g
           id="g1137"
           inkscape:label="Channel2pin"
           transform="rotate(-90,51.238938,33.020208)">
          <circle
             inkscape:label="connector8pin"
             cy="33.977001"
             cx="61.400002"
             id="circle1131"
             style="fill:#ffffff;fill-opacity:1;stroke-width:0.264999;stroke-miterlimit:4;stroke-dasharray:none"
             r="0.5" />
          <circle
             style="fill:#ffffff;fill-opacity:1;stroke-width:0.264999;stroke-miterlimit:4;stroke-dasharray:none"
             id="circle1133"
             cx="61.400002"
             cy="36.517002"
             inkscape:label="connector7pin"
             r="0.5" />
          <circle
             style="fill:#ffffff;fill-opacity:1;stroke:none;stroke-width:0.264999;stroke-miterlimit:4;stroke-dasharray:none;stroke-opacity:1"
             id="circle1135"
             cx="61.400002"
             cy="39.056999"
             inkscape:label="connector6pin"
             r="0.5" />
        </g>
        <g
           inkscape:label="Channel1pin"
           id="g1149"
           transform="rotate(-90,49.863403,31.644673)">
          <circle
             r="0.5"
             style="fill:#ffffff;fill-opacity:1;stroke-width:0.264999;stroke-miterlimit:4;stroke-dasharray:none"
             id="circle1143"
             cx="61.400002"
             cy="33.977001"
             inkscape:label="connector5pin" />
          <circle
             r="0.5"
             inkscape:label="connector4pin"
             cy="36.517002"
             cx="61.400002"
             id="circle1145"
             style="fill:#ffffff;fill-opacity:1;stroke-width:0.264999;stroke-miterlimit:4;stroke-dasharray:none" />
          <circle
             r="0.5"
             inkscape:label="connector3pin"
             cy="39.056999"
             cx="61.400002"
             id="circle1147"
             style="fill:#ffffff;fill-opacity:1;stroke:none;stroke-width:0.264999;stroke-miterlimit:4;stroke-dasharray:none;stroke-opacity:1"
             sodipodi:insensitive="true" />
        </g>
      </g>
    </g>
    <g
       id="g1055"
       inkscape:label="S.BUS2">
      <path
         inkscape:label="socket"
         inkscape:connector-curvature="0"
         id="path870"
         d="m 60.021315,32.327195 v 8.417056 h 2.75107 v -9.35107 h -1.200737 v 0.934016 z"
         style="fill:#969696;fill-opacity:1;stroke:#000000;stroke-width:0.248931;stroke-linecap:butt;stroke-linejoin:miter;stroke-miterlimit:4;stroke-dasharray:none;stroke-opacity:1" />
      <g
         id="g1048"
         inkscape:label="pin">
        <circle
           inkscape:label="connector2pin"
           cy="33.977001"
           cx="61.400002"
           id="circle1015"
           style="fill:#ffffff;fill-opacity:1;stroke-width:0.264999;stroke-miterlimit:4;stroke-dasharray:none"
           r="0.5" />
        <circle
           style="fill:#ffffff;fill-opacity:1;stroke-width:0.264999;stroke-miterlimit:4;stroke-dasharray:none"
           id="path1013"
           cx="61.400002"
           cy="36.517002"
           inkscape:label="connector1pin"
           r="0.5" />
        <circle
           style="fill:#ffffff;fill-opacity:1;stroke:none;stroke-width:0.264999;stroke-miterlimit:4;stroke-dasharray:none;stroke-opacity:1"
           id="circle1017"
           cx="61.400002"
           cy="39.056999"
           inkscape:label="connector0pin"
           r="0.5" />
      </g>
    </g>
    <g
       id="g230">
      <g
         inkscape:label="text -"
         style="font-style:normal;font-variant:normal;font-weight:normal;font-stretch:normal;font-size:1.05833px;line-height:1.25;font-family:OCRA;-inkscape-font-specification:'OCRA, Normal';font-variant-ligatures:normal;font-variant-caps:normal;font-variant-numeric:normal;font-variant-east-asian:normal;fill:#ffffff;stroke-width:0.264583"
         id="text94"
         transform="rotate(90)"
         aria-label="-">
        <path
           inkscape:connector-curvature="0"
           id="path1294"
           d="m 38.810942,-63.404745 0.210607,-0.0011 q 0.205316,0 0.20955,0.0011 0.01164,0.0042 0.01905,0.01058 0.0085,0.0063 0.01376,0.01693 0.0053,0.01058 0.0053,0.04339 0,0.03281 -0.0053,0.04339 -0.0053,0.01058 -0.01376,0.01693 -0.0074,0.0063 -0.01905,0.01058 -0.0042,0.0011 -0.208491,0.0011 l -0.20955,-0.0011 q -0.01058,-0.0011 -0.01905,-0.0063 -0.01058,-0.0063 -0.01799,-0.01799 -0.0021,-0.0032 -0.0032,-0.0074 -0.0032,-0.0095 -0.0032,-0.03916 0,-0.02963 0.0032,-0.03916 0.0032,-0.0085 0.01164,-0.01799 0.01164,-0.01058 0.02646,-0.01376 z" />
      </g>
      <g
         inkscape:label="text +"
         style="font-size:1.05833px;line-height:1.25;font-family:OCRA;-inkscape-font-specification:OCRA;fill:#ffffff;stroke-width:0.264583"
         id="text72"
         transform="rotate(90)"
         aria-label="+">
        <path
           inkscape:connector-curvature="0"
           id="path1297"
           style="fill:#ffffff;stroke-width:0.264583"
           d="m 36.509561,-63.582779 h 0.02222 q 0.0032,0.0011 0.0095,0.0042 0.01482,0.0074 0.02222,0.02328 0.0053,0.0095 0.0053,0.04445 0,0.0032 0,0.04762 v 0.07832 h 0.07726 q 0.0762,0 0.08043,0.0011 0.03281,0.0064 0.04022,0.03704 0.0011,0.0064 0.0011,0.0127 0,0.03281 -0.02963,0.04551 -0.0053,0.0032 -0.01164,0.0042 -0.0042,0.0011 -0.08043,0.0011 h -0.07726 v 0.07832 q 0,0.08255 -0.0053,0.09207 -0.0074,0.01588 -0.02222,0.02328 -0.01482,0.0074 -0.02857,0.0053 -0.0053,-0.0011 -0.01164,-0.0032 -0.0095,-0.0032 -0.01799,-0.01164 -0.0085,-0.0085 -0.01164,-0.01799 -0.0032,-0.0095 -0.0032,-0.08996 v -0.0762 h -0.07937 l -0.07832,-0.0011 -0.0042,-0.0011 q -0.03493,-0.01058 -0.03704,-0.04868 0,-0.03598 0.03704,-0.04868 l 0.0042,-0.0021 h 0.07832 0.07937 v -0.0762 q 0,-0.08043 0.0032,-0.08996 0.0032,-0.0085 0.01164,-0.01799 0.01164,-0.01058 0.02646,-0.01376 z" />
      </g>
      <g
         inkscape:label="textS"
         style="font-style:normal;font-variant:normal;font-weight:normal;font-stretch:normal;font-size:1.05833px;line-height:1.25;font-family:OCRA;-inkscape-font-specification:'OCRA, Normal';font-variant-ligatures:normal;font-variant-caps:normal;font-variant-numeric:normal;font-variant-east-asian:normal;fill:#ffffff;stroke-width:0.264583"
         id="text100"
         transform="rotate(90)"
         aria-label="S">
        <path
           inkscape:connector-curvature="0"
           id="path1300"
           d="m 33.820137,-63.724058 q 0.0063,-0.0011 0.139699,-0.0011 l 0.140758,0.0011 q 0.04868,0.0063 0.08149,0.04022 0.03281,0.03387 0.0381,0.08149 0.0032,0.02222 -0.0042,0.03598 l -0.01058,0.01376 q -0.01482,0.01376 -0.03492,0.01376 -0.0074,0 -0.01376,-0.0011 -0.01376,-0.0042 -0.02222,-0.01376 -0.0127,-0.01376 -0.01482,-0.03492 0,-0.0074 -0.0021,-0.0127 -0.0053,-0.01482 -0.02117,-0.02011 l -0.0042,-0.0021 H 33.961953 33.83072 l -0.0021,0.0021 q -0.0074,0.0053 -0.0053,0.01588 0.0021,0.0021 0.188383,0.242358 0.187324,0.240241 0.190499,0.244474 0.01482,0.02222 0.01799,0.04868 0.0074,0.05503 -0.03387,0.09525 -0.02117,0.02117 -0.0508,0.02858 -0.01482,0.0042 -0.129116,0.0042 h -0.0254 q -0.132291,0 -0.139699,-0.0011 -0.04868,-0.0063 -0.08149,-0.04022 -0.03281,-0.03387 -0.0381,-0.08149 -0.0021,-0.02117 0.0042,-0.03493 0.0032,-0.0063 0.0095,-0.0127 0.0095,-0.01058 0.02328,-0.01376 0.0053,-0.0021 0.0127,-0.0021 0.01376,0 0.02434,0.0063 0.0053,0.0021 0.01058,0.0074 0.01482,0.01376 0.01588,0.03598 0.0011,0.0085 0.0021,0.0127 0.0063,0.01482 0.02117,0.02011 l 0.0042,0.0021 h 0.130175 0.129116 l 0.0032,-0.0011 q 0.0095,-0.0042 0.0063,-0.01588 0,-0.0021 -0.188383,-0.243416 -0.187324,-0.240241 -0.190499,-0.244474 -0.02434,-0.0381 -0.01693,-0.08255 0.0042,-0.02328 0.01799,-0.04233 0.02858,-0.04339 0.07938,-0.0508 z" />
      </g>
    </g>
    <g
       id="g222">
      <g
         inkscape:label="text -"
         style="font-style:normal;font-variant:normal;font-weight:normal;font-stretch:normal;font-size:1.05833px;line-height:1.25;font-family:OCRA;-inkscape-font-specification:'OCRA, Normal';font-variant-ligatures:normal;font-variant-caps:normal;font-variant-numeric:normal;font-variant-east-asian:normal;fill:#ffffff;stroke-width:0.264583"
         id="text106"
         transform="rotate(90)"
         aria-label="-">
        <path
           inkscape:connector-curvature="0"
           id="path1303"
           d="m 41.192194,-57.352395 0.210608,-0.0011 q 0.205316,0 0.209549,0.0011 0.01164,0.0042 0.01905,0.01058 0.0085,0.0063 0.01376,0.01693 0.0053,0.01058 0.0053,0.04339 0,0.03281 -0.0053,0.04339 -0.0053,0.01058 -0.01376,0.01693 -0.0074,0.0063 -0.01905,0.01058 -0.0042,0.0011 -0.208491,0.0011 l -0.209549,-0.0011 q -0.01058,-0.0011 -0.01905,-0.0063 -0.01058,-0.0063 -0.01799,-0.01799 -0.0021,-0.0032 -0.0032,-0.0074 -0.0032,-0.0095 -0.0032,-0.03916 0,-0.02963 0.0032,-0.03916 0.0032,-0.0085 0.01164,-0.01799 0.01164,-0.01058 0.02646,-0.01376 z" />
      </g>
      <g
         inkscape:label="text +"
         style="font-size:1.05833px;line-height:1.25;font-family:OCRA;-inkscape-font-specification:OCRA;fill:#ffffff;stroke-width:0.264583"
         id="text110"
         transform="rotate(90)"
         aria-label="+">
        <path
           inkscape:connector-curvature="0"
           id="path1306"
           style="fill:#ffffff;stroke-width:0.264583"
           d="m 41.371285,-55.016884 h 0.02222 q 0.0032,0.0011 0.0095,0.0042 0.01482,0.0074 0.02222,0.02328 0.0053,0.0095 0.0053,0.04445 0,0.0032 0,0.04763 v 0.07832 h 0.07726 q 0.0762,0 0.08043,0.0011 0.03281,0.0063 0.04022,0.03704 0.0011,0.0063 0.0011,0.0127 0,0.03281 -0.02963,0.04551 -0.0053,0.0032 -0.01164,0.0042 -0.0042,0.0011 -0.08043,0.0011 h -0.07726 v 0.07832 q 0,0.08255 -0.0053,0.09207 -0.0074,0.01587 -0.02222,0.02328 -0.01482,0.0074 -0.02858,0.0053 -0.0053,-0.0011 -0.01164,-0.0032 -0.0095,-0.0032 -0.01799,-0.01164 -0.0085,-0.0085 -0.01164,-0.01799 -0.0032,-0.0095 -0.0032,-0.08996 v -0.0762 h -0.07937 l -0.07832,-0.0011 -0.0042,-0.0011 q -0.03493,-0.01058 -0.03704,-0.04868 0,-0.03598 0.03704,-0.04868 l 0.0042,-0.0021 h 0.07832 0.07937 v -0.0762 q 0,-0.08043 0.0032,-0.08996 0.0032,-0.0085 0.01164,-0.01799 0.01164,-0.01058 0.02646,-0.01376 z" />
      </g>
      <g
         inkscape:label="textS"
         style="font-style:normal;font-variant:normal;font-weight:normal;font-stretch:normal;font-size:1.05833px;line-height:1.25;font-family:OCRA;-inkscape-font-specification:'OCRA, Normal';font-variant-ligatures:normal;font-variant-caps:normal;font-variant-numeric:normal;font-variant-east-asian:normal;fill:#ffffff;stroke-width:0.264583"
         id="text114"
         transform="rotate(90)"
         aria-label="S">
        <path
           inkscape:connector-curvature="0"
           id="path1309"
           d="m 41.228477,-52.512327 q 0.0064,-0.0011 0.1397,-0.0011 l 0.140758,0.0011 q 0.04868,0.0063 0.08149,0.04022 0.03281,0.03387 0.0381,0.08149 0.0032,0.02222 -0.0042,0.03598 l -0.01058,0.01376 q -0.01482,0.01376 -0.03492,0.01376 -0.0074,0 -0.01376,-0.0011 -0.01376,-0.0042 -0.02223,-0.01376 -0.0127,-0.01376 -0.01482,-0.03492 0,-0.0074 -0.0021,-0.0127 -0.0053,-0.01482 -0.02117,-0.02011 l -0.0042,-0.0021 h -0.130174 -0.131233 l -0.0021,0.0021 q -0.0074,0.0053 -0.0053,0.01588 0.0021,0.0021 0.188383,0.242358 0.187325,0.240241 0.1905,0.244474 0.01482,0.02222 0.01799,0.04868 0.0074,0.05503 -0.03387,0.09525 -0.02117,0.02117 -0.0508,0.02858 -0.01482,0.0042 -0.129117,0.0042 h -0.0254 q -0.132292,0 -0.1397,-0.0011 -0.04868,-0.0063 -0.08149,-0.04022 -0.03281,-0.03387 -0.0381,-0.08149 -0.0021,-0.02117 0.0042,-0.03493 0.0032,-0.0063 0.0095,-0.0127 0.0095,-0.01058 0.02328,-0.01376 0.0053,-0.0021 0.0127,-0.0021 0.01376,0 0.02434,0.0063 0.0053,0.0021 0.01058,0.0074 0.01482,0.01376 0.01588,0.03598 0.0011,0.0085 0.0021,0.0127 0.0063,0.01482 0.02117,0.02011 l 0.0042,0.0021 h 0.130174 0.129116 l 0.0032,-0.0011 q 0.0095,-0.0042 0.0064,-0.01588 0,-0.0021 -0.188382,-0.243416 -0.187325,-0.240241 -0.1905,-0.244474 -0.02434,-0.0381 -0.01693,-0.08255 0.0042,-0.02328 0.01799,-0.04233 0.02858,-0.04339 0.07937,-0.0508 z" />
      </g>
    </g>
    <g
       id="g214">
      <g
         inkscape:label="text1"
         style="font-style:normal;font-variant:normal;font-weight:normal;font-stretch:normal;font-size:1.05833px;line-height:1.25;font-family:OCRA;-inkscape-font-specification:'OCRA, Normal';font-variant-ligatures:normal;font-variant-caps:normal;font-variant-numeric:normal;font-variant-east-asian:normal;fill:#ffffff;stroke-width:0.264583"
         id="text118"
         transform="rotate(90)"
         aria-label="1">
        <path
           inkscape:connector-curvature="0"
           id="path1312"
           d="m 20.038717,-49.171964 q 0.0032,-0.0011 0.130175,-0.0011 h 0.126999 v 0.340782 0.340782 h 0.04974 0.04868 v -0.104775 q 0,-0.107949 0.0032,-0.117474 0.0021,-0.0042 0.0042,-0.0085 0.0063,-0.01058 0.01799,-0.01799 0.0085,-0.0042 0.02011,-0.0064 0.01058,-0.0011 0.02117,0.0021 0.0064,0.0021 0.01164,0.0053 0.01058,0.0074 0.01587,0.01693 0.0053,0.0085 0.0064,0.01905 l 0.0011,0.137583 q 0,0.137583 -0.0053,0.147108 -0.0074,0.01588 -0.02328,0.02328 -0.0053,0.0032 -0.0095,0.0042 -0.0042,0.0011 -0.211666,0.0011 h -0.207433 l -0.0053,-0.0021 q -0.03493,-0.01376 -0.03704,-0.04868 0,-0.03493 0.03704,-0.04868 l 0.0042,-0.0011 0.07832,-0.0011 h 0.07938 v -0.289982 -0.289983 h -0.07938 -0.07832 l -0.0042,-0.0021 q -0.02328,-0.0064 -0.03281,-0.02752 -0.0063,-0.0127 -0.0042,-0.02752 0.0011,-0.0074 0.0042,-0.01482 0.01058,-0.02434 0.0381,-0.02858 z" />
      </g>
      <g
         inkscape:label="text2"
         style="font-style:normal;font-variant:normal;font-weight:normal;font-stretch:normal;font-size:1.05833px;line-height:1.25;font-family:OCRA;-inkscape-font-specification:'OCRA, Normal';font-variant-ligatures:normal;font-variant-caps:normal;font-variant-numeric:normal;font-variant-east-asian:normal;fill:#ffffff;stroke-width:0.264583"
         id="text126"
         transform="rotate(90)"
         aria-label="2">
        <path
           inkscape:connector-curvature="0"
           id="path1315"
           d="m 22.685611,-49.171964 q 0.0032,-0.0011 0.183092,-0.0011 0.185207,0 0.197907,0.0032 0.05186,0.01376 0.06985,0.06456 0.0042,0.0095 0.0053,0.02117 v 0.264583 q -0.0053,0.03598 -0.03069,0.06033 -0.02011,0.01905 -0.04763,0.02646 l -0.0074,0.0011 -0.155575,0.0011 q -0.155574,0 -0.155574,0 -0.0011,0 -0.0011,0.119592 v 0.119591 h 0.176741 q 0.175683,0 0.179916,0.0011 0.03281,0.0063 0.04022,0.0381 0.0011,0.0053 0.0011,0.01164 0,0.03387 -0.03069,0.04657 l -0.01058,0.0032 -0.230716,0.0011 h -0.226483 v -0.176741 -0.176741 l 0.0011,-0.0063 q 0.0074,-0.03281 0.03069,-0.05398 0.0254,-0.02434 0.06138,-0.02752 0.0085,-0.0011 0.156633,-0.0011 h 0.148166 v -0.119592 -0.119591 h -0.177799 -0.178858 l -0.0042,-0.0021 q -0.02328,-0.0064 -0.03281,-0.02752 -0.0063,-0.0127 -0.0042,-0.02752 0.0011,-0.0074 0.0042,-0.01482 0.01058,-0.02434 0.0381,-0.02858 z" />
      </g>
      <g
         inkscape:label="text3"
         style="font-style:normal;font-variant:normal;font-weight:normal;font-stretch:normal;font-size:1.05833px;line-height:1.25;font-family:OCRA;-inkscape-font-specification:'OCRA, Normal';font-variant-ligatures:normal;font-variant-caps:normal;font-variant-numeric:normal;font-variant-east-asian:normal;fill:#ffffff;stroke-width:0.264583"
         id="text132"
         transform="rotate(90)"
         aria-label="3">
        <path
           inkscape:connector-curvature="0"
           id="path1318"
           d="m 25.429607,-49.171964 q 0.0032,-0.0011 0.183091,-0.0011 0.185208,0 0.197908,0.0032 0.05186,0.01376 0.06985,0.06456 0.0042,0.0095 0.0053,0.02117 v 0.216958 0.0011 q -0.0053,0.04339 -0.03281,0.07726 l -0.0042,0.0063 0.0032,0.0064 q 0.01693,0.02011 0.0254,0.04445 0.0053,0.0127 0.0074,0.02857 l 0.0021,0.0085 v 0.107949 0.10795 l -0.0021,0.0063 q -0.0053,0.02646 -0.02117,0.04551 -0.02646,0.03175 -0.06773,0.03598 l -0.186266,0.0011 h -0.180974 l -0.0042,-0.0021 q -0.03492,-0.01058 -0.03704,-0.04868 0,-0.03598 0.03704,-0.04868 l 0.0042,-0.0011 0.178858,-0.0011 h 0.177799 v -0.09842 q 0,-0.102658 -0.0053,-0.112183 -0.0074,-0.01588 -0.02328,-0.02328 -0.0095,-0.0053 -0.05186,-0.0053 h -0.06879 q -0.111124,-0.0011 -0.121707,-0.0053 -0.01905,-0.0095 -0.02646,-0.03175 -0.0011,-0.0053 -0.0011,-0.01376 0,-0.0095 0.0011,-0.01376 0.0074,-0.02223 0.02646,-0.03175 0.01058,-0.0053 0.04657,-0.0053 0.0074,0 0.07514,0 h 0.10795 l 0.0053,-0.0021 q 0.02646,-0.0085 0.03492,-0.03598 0.0011,-0.0042 0.0011,-0.102658 v -0.09843 h -0.177799 -0.178858 l -0.0042,-0.0021 q -0.02328,-0.0064 -0.03281,-0.02752 -0.0064,-0.0127 -0.0042,-0.02752 0.0011,-0.0074 0.0042,-0.01482 0.01058,-0.02434 0.0381,-0.02858 z" />
      </g>
      <g
         inkscape:label="text4"
         style="font-style:normal;font-variant:normal;font-weight:normal;font-stretch:normal;font-size:1.05833px;line-height:1.25;font-family:OCRA;-inkscape-font-specification:'OCRA, Normal';font-variant-ligatures:normal;font-variant-caps:normal;font-variant-numeric:normal;font-variant-east-asian:normal;fill:#ffffff;stroke-width:0.264583"
         id="text138"
         transform="rotate(90)"
         aria-label="4">
        <path
           inkscape:connector-curvature="0"
           id="path1321"
           d="m 28.198297,-49.173173 0.02222,0.0011 q 0.01058,0.0021 0.01905,0.0095 0.0127,0.01058 0.01799,0.02646 0.0011,0.0042 0.0011,0.195791 v 0.192616 h 0.09843 0.09842 v -0.149224 -0.150283 l 0.0021,-0.0042 q 0.0085,-0.02963 0.03704,-0.03598 l 0.01376,-0.0011 q 0.01058,0.0011 0.02011,0.0053 0.02011,0.0095 0.02646,0.03175 l 0.0021,0.0042 v 0.149224 0.150283 h 0.0042 q 0.02858,0.0032 0.04127,0.02963 0.0053,0.0127 0.0042,0.02646 l -0.0042,0.01482 q -0.0127,0.02646 -0.04127,0.02963 l -0.0042,0.0011 v 0.106891 q -0.0011,0.110067 -0.0053,0.119592 -0.0074,0.01588 -0.02328,0.02328 -0.01376,0.0063 -0.02857,0.0053 -0.0053,-0.0011 -0.01058,-0.0032 -0.0095,-0.0032 -0.01799,-0.01164 -0.0095,-0.0095 -0.0127,-0.01799 -0.0032,-0.0095 -0.0032,-0.118533 v -0.104774 h -0.149225 -0.149224 v -0.240241 q 0,-0.245533 0.0032,-0.254 0.0032,-0.0085 0.0127,-0.01693 0.01058,-0.01164 0.0254,-0.01482 z" />
      </g>
      <g
         inkscape:label="text5"
         style="font-style:normal;font-variant:normal;font-weight:normal;font-stretch:normal;font-size:1.05833px;line-height:1.25;font-family:OCRA;-inkscape-font-specification:'OCRA, Normal';font-variant-ligatures:normal;font-variant-caps:normal;font-variant-numeric:normal;font-variant-east-asian:normal;fill:#ffffff;stroke-width:0.264583"
         id="text144"
         transform="rotate(90)"
         aria-label="5">
        <path
           inkscape:connector-curvature="0"
           id="path1324"
           d="m 30.976867,-48.951832 v -0.22119 h 0.176741 q 0.176742,0 0.180975,0.0011 0.03281,0.0064 0.04022,0.0381 0.0011,0.0053 0.0011,0.01164 0,0.03281 -0.02963,0.04657 -0.0053,0.0021 -0.01164,0.0032 -0.0042,0.0011 -0.130175,0.0011 h -0.126999 v 0.119591 0.119592 h 0.102658 q 0.107949,0 0.120649,0.0032 0.05292,0.01376 0.06985,0.06456 0.0042,0.01164 0.0053,0.02222 l 0.0011,0.135466 v 0.129116 l -0.0021,0.0063 q -0.0053,0.0254 -0.02117,0.04445 -0.02117,0.0254 -0.05292,0.03387 -0.0127,0.0032 -0.139699,0.0032 -0.121708,0 -0.132291,-0.0011 -0.01482,-0.0021 -0.02858,-0.0063 l -0.09842,-0.04233 q -0.01376,-0.0085 -0.02011,-0.02222 -0.0064,-0.0127 -0.0042,-0.02858 0.0011,-0.0074 0.0053,-0.01482 0.01376,-0.02963 0.04657,-0.02858 0.0074,0 0.01376,0.0021 0.0042,0.0021 0.04657,0.02011 0.04127,0.01799 0.04551,0.01905 0.0032,0.0011 0.121708,0.0011 h 0.118533 v -0.119591 -0.119592 h -0.149224 -0.149225 z" />
      </g>
      <g
         inkscape:label="text6"
         style="font-style:normal;font-variant:normal;font-weight:normal;font-stretch:normal;font-size:1.05833px;line-height:1.25;font-family:OCRA;-inkscape-font-specification:'OCRA, Normal';font-variant-ligatures:normal;font-variant-caps:normal;font-variant-numeric:normal;font-variant-east-asian:normal;fill:#ffffff;stroke-width:0.264583"
         id="text150"
         transform="rotate(90)"
         aria-label="6">
        <path
           inkscape:connector-curvature="0"
           id="path1327"
           d="m 33.795477,-49.173025 h 0.06773 q 0.01588,0.0032 0.02752,0.01482 0.01376,0.01482 0.01376,0.03493 0,0.03281 -0.03069,0.04657 -0.0063,0.0032 -0.0127,0.0042 h -0.0063 v 0.161924 0.162983 h 0.178858 q 0.1778,0 0.182033,0.0011 0.01164,0.0032 0.01905,0.0095 0.0085,0.0074 0.01376,0.01693 0.0042,0.01058 0.0053,0.04551 v 0.104774 q 0,0.140758 -0.0053,0.150283 -0.0053,0.01058 -0.01376,0.01693 -0.0074,0.0063 -0.01905,0.01058 -0.0042,0.0011 -0.208491,0.0011 l -0.209549,-0.0011 q -0.01058,-0.0011 -0.01905,-0.0064 -0.01058,-0.0063 -0.01799,-0.01799 -0.0042,-0.0074 -0.0063,-0.01693 v -0.698498 q 0.0032,-0.01482 0.01482,-0.02646 0.01164,-0.01164 0.02646,-0.01482 z m 0.356657,0.603248 v -0.07726 h -0.148166 -0.149225 v 0.07726 0.07726 h 0.149225 0.148166 z" />
      </g>
      <g
         inkscape:label="text7"
         style="font-style:normal;font-variant:normal;font-weight:normal;font-stretch:normal;font-size:1.05833px;line-height:1.25;font-family:OCRA;-inkscape-font-specification:'OCRA, Normal';font-variant-ligatures:normal;font-variant-caps:normal;font-variant-numeric:normal;font-variant-east-asian:normal;fill:#ffffff;stroke-width:0.264583"
         id="text156"
         transform="rotate(90)"
         aria-label="7/B">
        <path
           inkscape:connector-curvature="0"
           id="path1330"
           d="m 35.523542,-49.172117 q 0.0042,-0.0011 0.230716,-0.0011 h 0.227541 v 0.155574 q 0,0.159808 -0.0032,0.168275 -0.0032,0.0095 -0.01058,0.01693 -0.0042,0.0042 -0.09525,0.08149 l -0.09102,0.07832 v 0.12065 q 0,0.123824 -0.0053,0.133349 -0.0074,0.01588 -0.02222,0.02328 -0.01482,0.0063 -0.02858,0.0053 -0.0053,-0.0011 -0.01164,-0.0032 -0.0095,-0.0032 -0.01799,-0.01164 -0.0085,-0.0095 -0.01164,-0.01799 -0.0032,-0.0095 -0.0032,-0.128058 0,-0.01164 0,-0.01799 0,-0.136524 0.0032,-0.144991 0.0032,-0.0085 0.01058,-0.01693 0.0042,-0.0042 0.09419,-0.08149 l 0.09102,-0.07726 v -0.09102 -0.09102 h -0.149225 -0.148166 l -0.0011,0.0021 q -0.0011,0.0085 -0.0053,0.01482 -0.0063,0.01164 -0.01693,0.01799 -0.01376,0.0085 -0.03281,0.0074 -0.01799,-0.0021 -0.03069,-0.01587 -0.0074,-0.0085 -0.01058,-0.01693 -0.0032,-0.0095 -0.0032,-0.03916 0,-0.02963 0.0032,-0.03916 0.0032,-0.0085 0.01164,-0.01693 0.01164,-0.01164 0.02646,-0.01482 z" />
        <path
           inkscape:connector-curvature="0"
           id="path1332"
           d="m 36.679073,-49.172117 q 0.01058,-0.0021 0.02222,0.0011 0.0063,0.0021 0.0127,0.0053 0.0127,0.0085 0.01905,0.02223 0.0064,0.01376 0.0042,0.02857 l -0.0042,0.0127 -0.401107,0.686856 q -0.01482,0.0254 -0.04551,0.0254 -0.03387,-0.0021 -0.04551,-0.03493 -0.0011,-0.0021 -0.0011,-0.0042 -0.0021,-0.0095 -0.0011,-0.02011 0.0011,-0.0063 0.0032,-0.01164 l 0.402166,-0.686856 q 0.01164,-0.02011 0.03492,-0.02434 z" />
        <path
           inkscape:connector-curvature="0"
           id="path1334"
           d="m 36.995349,-48.781593 v -0.391582 h 0.157691 l 0.157691,0.0011 0.0095,0.0011 q 0.06879,0.01058 0.115358,0.05821 0.01482,0.01482 0.02646,0.03175 0.02646,0.04022 0.03175,0.09102 v 0.0762 q -0.0074,0.07303 -0.05821,0.122766 l -0.0095,0.0095 0.0095,0.0095 q 0.01482,0.01376 0.02646,0.03175 0.02434,0.03704 0.03069,0.08361 0.0021,0.01058 0.0021,0.04551 0,0.03493 -0.0021,0.04551 -0.0085,0.05609 -0.04233,0.09948 -0.01376,0.01799 -0.03175,0.03175 -0.04022,0.03175 -0.09102,0.04127 -0.01799,0.0032 -0.178857,0.0032 h -0.153458 z m 0.316441,-0.287866 -0.0074,-0.0021 H 37.200665 37.09589 v 0.119591 0.119591 h 0.104775 0.103716 l 0.0074,-0.0021 q 0.05715,-0.01164 0.0762,-0.06456 0.0011,-0.0053 0.0021,-0.0095 0.0032,-0.0127 0.0032,-0.04762 0,-0.02646 -0.0021,-0.03281 -0.0095,-0.04974 -0.05398,-0.07197 -0.01164,-0.0053 -0.0254,-0.0085 z m 0,0.339724 -0.0074,-0.0011 H 37.200665 37.09589 v 0.119591 0.119591 h 0.104775 0.103716 l 0.0074,-0.0011 q 0.04868,-0.01058 0.07091,-0.05398 0.0064,-0.0127 0.0085,-0.02752 0.0021,-0.0063 0.0021,-0.03704 0,-0.03069 -0.0021,-0.03704 -0.0095,-0.04974 -0.05398,-0.07197 -0.01164,-0.0063 -0.0254,-0.0095 z" />
      </g>
      <g
         inkscape:label="text8"
         style="font-style:normal;font-variant:normal;font-weight:normal;font-stretch:normal;font-size:1.05833px;line-height:1.25;font-family:OCRA;-inkscape-font-specification:'OCRA, Normal';font-variant-ligatures:normal;font-variant-caps:normal;font-variant-numeric:normal;font-variant-east-asian:normal;fill:#ffffff;stroke-width:0.264583"
         id="text162"
         transform="rotate(90)"
         aria-label="8/SB">
        <path
           inkscape:connector-curvature="0"
           id="path1337"
           d="m 38.239927,-49.171964 0.110066,-0.0011 q 0.110066,0.0011 0.12065,0.0053 0.01482,0.0074 0.02222,0.02328 0.0053,0.0095 0.0053,0.04339 v 0.119591 0.149225 h 0.0032 q 0.0085,0 0.02117,0.0032 0.0508,0.0127 0.06879,0.06138 0.0032,0.0074 0.0042,0.01376 0.0032,0.0127 0.0032,0.147108 v 0.129116 l -0.0021,0.0063 q -0.0053,0.0254 -0.02117,0.04445 -0.02646,0.03175 -0.06773,0.03598 l -0.162983,0.0011 h -0.15773 l -0.0063,-0.0021 q -0.03598,-0.0085 -0.05927,-0.03493 -0.01376,-0.01799 -0.01905,-0.03916 -0.0032,-0.0127 -0.0032,-0.144991 0,-0.132291 0.0032,-0.144991 0.0127,-0.0508 0.06244,-0.06985 0.01376,-0.0053 0.02752,-0.0063 h 0.0064 v -0.147108 q 0,-0.151341 0.0032,-0.160866 0.0032,-0.0085 0.01164,-0.01693 0.01164,-0.01164 0.02646,-0.01482 z m 0.157691,0.220132 v -0.119591 h -0.04974 -0.04868 v 0.119591 0.119592 h 0.04868 0.04974 z m 0.09948,0.340783 v -0.119592 H 38.348935 38.19971 v 0.119592 0.119591 h 0.149225 0.148166 z" />
        <path
           inkscape:connector-curvature="0"
           id="path1339"
           d="m 39.295975,-49.171964 q 0.01058,-0.0021 0.02222,0.0011 0.0064,0.0021 0.0127,0.0053 0.0127,0.0085 0.01905,0.02222 0.0063,0.01376 0.0042,0.02857 l -0.0042,0.0127 -0.401107,0.686856 q -0.01482,0.0254 -0.04551,0.0254 -0.03387,-0.0021 -0.04551,-0.03493 -0.0011,-0.0021 -0.0011,-0.0042 -0.0021,-0.0095 -0.0011,-0.02011 0.0011,-0.0063 0.0032,-0.01164 l 0.402165,-0.686857 q 0.01164,-0.02011 0.03493,-0.02434 z" />
        <path
           inkscape:connector-curvature="0"
           id="path1341"
           d="m 39.710675,-49.171964 q 0.0063,-0.0011 0.139699,-0.0011 l 0.140758,0.0011 q 0.04868,0.0064 0.08149,0.04022 0.03281,0.03387 0.0381,0.08149 0.0032,0.02222 -0.0042,0.03598 l -0.01058,0.01376 q -0.01482,0.01376 -0.03492,0.01376 -0.0074,0 -0.01376,-0.0011 -0.01376,-0.0042 -0.02222,-0.01376 -0.0127,-0.01376 -0.01482,-0.03493 0,-0.0074 -0.0021,-0.0127 -0.0053,-0.01482 -0.02117,-0.02011 l -0.0042,-0.0021 h -0.130175 -0.131233 l -0.0021,0.0021 q -0.0074,0.0053 -0.0053,0.01587 0.0021,0.0021 0.188383,0.242357 0.187324,0.240241 0.190499,0.244475 0.01482,0.02222 0.01799,0.04868 0.0074,0.05503 -0.03387,0.09525 -0.02117,0.02117 -0.0508,0.02857 -0.01482,0.0042 -0.129116,0.0042 h -0.0254 q -0.132291,0 -0.139699,-0.0011 -0.04868,-0.0063 -0.08149,-0.04022 -0.03281,-0.03387 -0.0381,-0.08149 -0.0021,-0.02117 0.0042,-0.03492 0.0032,-0.0064 0.0095,-0.0127 0.0095,-0.01058 0.02328,-0.01376 0.0053,-0.0021 0.0127,-0.0021 0.01376,0 0.02434,0.0063 0.0053,0.0021 0.01058,0.0074 0.01482,0.01376 0.01588,0.03598 0.0011,0.0085 0.0021,0.0127 0.0063,0.01482 0.02117,0.02011 l 0.0042,0.0021 h 0.130175 0.129116 l 0.0032,-0.0011 q 0.0095,-0.0042 0.0063,-0.01588 0,-0.0021 -0.188383,-0.243416 -0.187324,-0.240241 -0.190499,-0.244474 -0.02434,-0.0381 -0.01693,-0.08255 0.0042,-0.02328 0.01799,-0.04233 0.02857,-0.04339 0.07937,-0.0508 z" />
        <path
           inkscape:connector-curvature="0"
           id="path1343"
           d="m 40.368791,-48.78144 v -0.391582 h 0.157691 l 0.157691,0.0011 0.0095,0.0011 q 0.06879,0.01058 0.115358,0.05821 0.01482,0.01482 0.02646,0.03175 0.02646,0.04022 0.03175,0.09102 v 0.0762 q -0.0074,0.07303 -0.05821,0.122767 l -0.0095,0.0095 0.0095,0.0095 q 0.01482,0.01376 0.02646,0.03175 0.02434,0.03704 0.03069,0.08361 0.0021,0.01058 0.0021,0.04551 0,0.03493 -0.0021,0.04551 -0.0085,0.05609 -0.04233,0.09948 -0.01376,0.01799 -0.03175,0.03175 -0.04022,0.03175 -0.09102,0.04127 -0.01799,0.0032 -0.178857,0.0032 h -0.153458 z m 0.31644,-0.287866 -0.0074,-0.0021 H 40.574115 40.46934 v 0.119591 0.119592 h 0.104775 0.103716 l 0.0074,-0.0021 q 0.05715,-0.01164 0.0762,-0.06456 0.0011,-0.0053 0.0021,-0.0095 0.0032,-0.0127 0.0032,-0.04763 0,-0.02646 -0.0021,-0.03281 -0.0095,-0.04974 -0.05398,-0.07197 -0.01164,-0.0053 -0.0254,-0.0085 z m 0,0.339724 -0.0074,-0.0011 H 40.574115 40.46934 v 0.119592 0.119591 h 0.104775 0.103716 l 0.0074,-0.0011 q 0.04868,-0.01058 0.07091,-0.05398 0.0063,-0.0127 0.0085,-0.02752 0.0021,-0.0063 0.0021,-0.03704 0,-0.03069 -0.0021,-0.03704 -0.0095,-0.04974 -0.05398,-0.07197 -0.01164,-0.0064 -0.0254,-0.0095 z" />
      </g>
    </g>
    <g
       id="g183">
      <path
         id="path189"
         style="display:inline;fill:#9a9c9f;stroke-width:0.329893"
         d="m 41.064453,7.9492188 c -1.021088,0 -1.461407,0.2472951 -2.652344,1.4902343 -0.785385,0.8196739 -1.427734,1.6894059 -1.427734,1.9335939 0,0.297146 1.773464,0.901484 5.361328,1.826172 2.948417,0.759885 5.546636,1.443842 5.773438,1.519531 0.284636,0.09498 0.412109,0.965589 0.412109,2.810547 0,2.641043 0.01646,2.697156 1.488281,4.759765 1.998108,2.800101 4.181792,7.50871 5.416016,11.681641 0.557042,1.883365 1.011719,3.585235 1.011719,3.783203 0,0.197972 -0.963211,-0.594788 -2.142578,-1.763672 -1.179368,-1.168883 -2.144532,-2.034764 -2.144532,-1.923828 0,0.110929 0.517924,1.251463 1.152344,2.535156 1.636603,3.311532 2.910281,6.628701 4.003906,10.435547 l 0.945313,3.296875 0.107422,-3.957031 c 0.05817,-2.175549 -0.07111,-5.287889 -0.28711,-6.917969 C 57.246926,33.156429 55.326173,26.604871 52.654297,20.9375 48.695574,12.54058 44.598497,7.9492188 41.064453,7.9492188 Z M 9.4375,9.9277344 c -0.436834,0 -0.4941406,4.2159606 -0.4941406,35.9589846 0,31.743023 0.057314,35.957031 0.4941406,35.957031 0.4368302,0 0.4960938,-4.214008 0.4960938,-35.957031 0,-31.743024 -0.059271,-35.9589846 -0.4960938,-35.9589846 z m 2.097656,0.6347656 0.105469,4.927734 c 0.09449,4.374728 0.180509,5.008663 0.765625,5.654297 0.960053,1.05933 2.433612,1.73035 3.3125,1.509766 1.577038,-0.395811 1.802734,-0.981411 1.802734,-4.691406 0,-3.40283 0.01278,-3.461 0.742188,-3.357422 0.721814,0.102501 0.744375,0.225873 0.833984,4.490234 0.07344,3.493984 0.18961,4.423927 0.576172,4.572266 0.419282,0.160894 0.486328,2.798031 0.486328,19.421875 0,19.303385 0.03753,19.977743 1.072266,19.392578 0.136101,-0.07695 0.248047,-10.687815 0.248047,-23.580078 v -0.002 c 0,-23.297602 -0.0054,-23.446326 -0.703125,-24.6875 -0.80493,-1.432177 -1.829478,-2.085938 -3.271485,-2.085938 -1.7703,0 -2.115724,0.709957 -2.242187,4.59375 -0.09831,3.018788 -0.184662,3.4564 -0.660156,3.365235 -0.469735,-0.09007 -0.55886,-0.707049 -0.638672,-4.382813 -0.0511,-2.353172 -0.19976,-4.374241 -0.330078,-4.490234 -0.130356,-0.115994 -0.655828,-0.308766 -1.167969,-0.429688 z m 26.175782,2.347656 c -0.314608,-0.0094 -0.402676,0.491204 -0.330079,1.878906 l 0.09766,1.890626 2.048828,0.472656 2.048828,0.470703 0.0957,2.337891 c 0.09339,2.27752 0.119962,2.339699 1.003906,2.441406 l 0.90625,0.105468 v -2.201171 c 0,-1.878429 0.07704,-2.172056 0.525391,-2 0.28902,0.110891 0.883565,0.290765 1.320312,0.40039 0.744223,0.186785 0.792969,0.344007 0.792969,2.507813 0,1.969772 0.07822,2.280213 0.523438,2.109375 0.286979,-0.110136 0.661622,-0.201172 0.833984,-0.201172 0.18531,0 0.275657,-1.571029 0.220703,-3.84375 l -0.09375,-3.84375 -4.783203,-1.255859 C 40.29098,13.48851 37.946791,12.917303 37.710938,12.910156 Z m -1.550782,0.482422 -0.726562,2.96875 c -0.399141,1.632971 -0.905983,4.304529 -1.126953,5.9375 -0.494155,3.651833 -0.567789,13.038301 -0.136719,17.484375 l 0.320312,3.298828 0.21875,-6.103515 c 0.129865,-3.630974 0.500181,-7.809714 0.916016,-10.316407 0.384423,-2.317315 0.699219,-4.749787 0.699219,-5.40625 0,-0.656458 0.214342,-1.359101 0.476562,-1.560547 0.262224,-0.201448 0.571473,-0.760327 0.6875,-1.242187 0.167773,-0.69668 0.07525,-0.918341 -0.458984,-1.087891 -0.555073,-0.176163 -0.69016,-0.540628 -0.771485,-2.09375 z m 1.324219,7.751953 c -0.09328,0 -0.170262,0.555923 -0.169922,1.236328 3.29e-4,0.996378 0.177995,1.344471 0.908203,1.785157 1.205095,0.727287 1.400391,0.72367 1.400391,-0.02539 0,-0.348057 0.07434,-0.830625 0.164062,-1.072266 0.136252,-0.366954 -1.727222,-1.923828 -2.302734,-1.923828 z m -25.498047,1.429688 c -0.375488,-0.02154 -0.404297,0.207955 -0.404297,1.009765 0,1.169435 0.293374,1.447453 1.56836,1.492188 0.607396,0.02116 0.742187,-0.149432 0.742187,-0.94336 0,-1.06594 -0.07925,-1.148595 -1.402344,-1.464843 -0.21393,-0.05114 -0.378743,-0.08657 -0.503906,-0.09375 z m 29.486328,1.208984 c -0.110135,0 -0.199218,0.504963 -0.199218,1.121094 0,0.990134 0.2002,1.24853 1.726562,2.226562 l 1.726562,1.105469 -1.546874,0.179688 c -0.851475,0.09823 -1.633382,0.26228 -1.736329,0.365234 -0.102954,0.102954 -0.0874,1.026275 0.0332,2.052734 l 0.21875,1.867188 1.685547,-0.212891 c 0.927258,-0.116938 2.280096,-0.308748 3.00586,-0.425781 l 1.318359,-0.212891 0.09961,-1.861328 0.09766,-1.861328 -3.115235,-2.171875 c -1.71289,-1.194236 -3.204322,-2.171875 -3.314454,-2.171875 z m -29.824218,1.978516 c -0.0624,0 -0.0664,2.166267 -0.0078,4.8125 l 0.107422,4.810547 1.068359,0.955078 c 0.836863,0.747095 1.275364,0.912895 2.021485,0.763672 0.562987,-0.112593 1.050079,-0.03412 1.189453,0.191406 0.426954,0.690822 2.266049,0.253096 2.71875,-0.646484 0.264793,-0.526205 0.416819,-2.28128 0.419922,-4.851563 l 0.0039,-4.029297 -1.402344,-0.371094 C 16.996456,27.192465 15.330893,26.741836 14.064453,26.394531 12.798013,26.04723 11.71083,25.761719 11.648438,25.761719 Z m 2.042968,2.833984 c 0.06201,0.0069 0.133093,0.02211 0.212891,0.04297 0.619763,0.162066 0.66547,0.395035 0.578125,2.99414 -0.08689,2.58607 -0.399668,3.447985 -1.023438,2.824219 -0.124724,-0.124724 -0.226562,-1.523632 -0.226562,-3.109375 0,-2.395971 0.02488,-2.800282 0.458984,-2.751954 z m 25.230469,0.226563 c -0.04454,0.0047 -0.09504,0.01782 -0.150391,0.03906 -0.286979,0.110136 -0.732912,0.201172 -0.990234,0.201172 -0.35588,0 -0.466797,0.511417 -0.466797,2.142578 0,1.179368 0.111984,2.143104 0.248047,2.140625 0.136063,-0.0025 0.580039,-0.09374 0.988281,-0.203125 0.673077,-0.180359 0.742188,-0.398285 0.742188,-2.339844 0,-1.589776 -0.05933,-2.013202 -0.371094,-1.980468 z m -22.226563,0.568359 c 0.4032,0 0.496094,0.551492 0.496094,2.970703 0,2.419215 -0.09291,2.96875 -0.496094,2.96875 -0.403203,0 -0.49414,-0.549535 -0.49414,-2.96875 0,-2.419211 0.09096,-2.970703 0.49414,-2.970703 z M 38.75,34.570312 37.960938,35.677734 c -0.947721,1.33095 -1.246869,4.349314 -0.650391,6.564454 0.520611,1.933402 2.219996,3.644531 3.621094,3.644531 1.911696,0 2.329535,-0.504523 3.703125,-4.455078 0.576102,-1.656923 1.325286,-1.705578 1.71875,-0.113282 0.238034,0.963341 0.166091,1.474974 -0.365235,2.548829 -0.585267,1.182935 -0.609427,1.421342 -0.197265,2.009765 0.620745,0.886239 0.960162,0.844419 1.65039,-0.208984 0.895748,-1.367082 0.790281,-5.165276 -0.191406,-6.904297 -0.874447,-1.549081 -2.188041,-2.445313 -3.585938,-2.445313 -1.27014,0 -1.91801,0.769285 -2.763671,3.273438 -0.38199,1.131129 -0.914469,2.140869 -1.183594,2.244141 -1.26675,0.486096 -1.47511,-2.536306 -0.294922,-4.275391 l 0.787109,-1.160156 -0.730468,-0.914063 z m -24.876953,3.416016 c -0.768214,-0.02429 -1.380837,0.183369 -1.773438,0.617188 -0.492147,0.543825 -0.558297,1.184626 -0.46289,4.447265 0.10439,3.569855 0.163523,3.865508 0.949219,4.650391 0.811748,0.810905 4.287637,2.067078 5.863281,2.11914 0.662744,0.02192 0.749927,-0.113162 0.660156,-1.019531 C 19.01054,47.802944 18.896468,47.726326 16.529297,47.068359 15.167484,46.68984 13.868378,46.260071 13.642578,46.113281 13.3686,45.93519 13.232422,44.920705 13.232422,43.0625 c 0,-3.145047 -0.02012,-3.126763 2.638672,-2.333984 3.375995,1.006616 3.298828,1.011062 3.298828,-0.267578 0,-1.074618 -0.09014,-1.170109 -1.402344,-1.50586 -0.771122,-0.197291 -1.831383,-0.499305 -2.357422,-0.671875 -0.558338,-0.183166 -1.076181,-0.282301 -1.537109,-0.296875 z m 35.345703,6.97461 c -0.310324,0.01826 -0.357422,0.527268 -0.357422,1.75 0,0.997927 0.148661,1.814453 0.330078,1.814453 0.181455,0 0.328125,-0.603373 0.328125,-1.339844 0,-0.808687 0.130859,-1.257899 0.330078,-1.134766 0.181455,0.112139 0.330079,0.685392 0.330079,1.273438 0,1.18656 0.546665,1.930275 1.3125,1.785156 0.347036,-0.06576 0.533964,-0.578304 0.603515,-1.660156 0.06047,-0.940468 -0.03881,-1.5625 -0.248047,-1.5625 -0.191395,0 -0.347656,0.519253 -0.347656,1.154297 0,0.635043 -0.148661,1.154296 -0.330078,1.154296 -0.181455,0 -0.330078,-0.511959 -0.330078,-1.136718 0,-0.79985 -0.216139,-1.286828 -0.732422,-1.648438 -0.420588,-0.29459 -0.702478,-0.460176 -0.888672,-0.449218 z m -10.501953,2.078124 c -0.110794,0.0067 -0.211723,0.09057 -0.335938,0.240235 -0.828676,0.998494 -1.395626,2.949846 -1.388671,4.78125 0.01247,3.303647 1.829401,6.03125 4.017578,6.03125 1.826592,0 2.263614,-0.537663 3.625,-4.453125 0.576102,-1.656919 1.325286,-1.707527 1.71875,-0.115234 0.237354,0.960566 0.165097,1.47511 -0.357422,2.53125 -0.602238,1.217227 -0.612705,1.392498 -0.144532,2.164062 0.474841,0.782578 0.548128,0.803793 1.09961,0.304688 0.325493,-0.294577 0.75448,-1.139247 0.953125,-1.876954 0.410823,-1.525678 0.154192,-4.161112 -0.535156,-5.49414 -1.185037,-2.291611 -3.995129,-3.378094 -5.22461,-2.019532 -0.302513,0.3343 -0.862155,1.532934 -1.24414,2.664063 -0.38199,1.131129 -0.914469,2.140865 -1.183594,2.244141 -1.26675,0.486096 -1.47511,-2.534353 -0.294922,-4.273438 l 0.787109,-1.160156 -0.71875,-0.900391 C 39.111235,47.23172 38.901453,47.027924 38.716797,47.039062 Z m 10.474609,2.146485 c -0.181455,0 -0.330078,0.148623 -0.330078,0.330078 0,0.181455 0.148661,0.330078 0.330078,0.330078 0.181455,0 0.328125,-0.148661 0.328125,-0.330078 0,-0.181455 -0.146707,-0.330078 -0.328125,-0.330078 z m -37.609375,0.0918 v 4.59375 c 0,4.752431 0.182506,5.585722 1.441407,6.605468 0.938086,0.759882 1.625598,0.729374 2.384765,-0.107421 0.505217,-0.556876 0.660364,-1.365944 0.792969,-4.126953 0.09419,-1.961477 0.305746,-3.434547 0.49414,-3.433594 0.194722,9.9e-4 0.398734,1.779802 0.496094,4.341797 0.150199,3.95283 0.22335,4.363888 0.824219,4.597656 0.362872,0.141165 0.770168,0.26656 0.90625,0.279297 0.136101,0.01285 0.248047,-1.897221 0.248047,-4.244141 0,-2.346924 -0.158013,-4.684539 -0.351563,-5.195312 -0.818464,-2.160159 -2.60794,-3.038907 -3.708984,-1.822266 -0.409361,0.452341 -0.5566,1.433645 -0.628906,4.205078 -0.07703,2.952329 -0.183871,3.617188 -0.587891,3.617188 -0.411197,0 -0.51182,-0.761235 -0.58789,-4.5 -0.09143,-4.493405 -0.09164,-4.500534 -0.90625,-4.65625 z m 37.964844,0.732422 -0.01367,1.208984 c -0.0076,0.66528 -0.198991,1.273274 -0.425781,1.349609 -0.754825,0.25406 0.328946,1.132602 1.435547,1.164063 0.563671,0.01587 1.108614,0.112494 1.210937,0.214844 0.312378,0.312378 0.40625,0.212648 0.40625,-0.431641 0,-0.339553 -0.588315,-1.26609 -1.30664,-2.060547 z m 0.410156,1.646484 c 0.133614,-0.02878 0.388609,0.133452 0.716797,0.496094 0.546558,0.603938 0.548701,0.662109 0.04102,0.662109 -0.305991,0 -0.64256,-0.229774 -0.75,-0.509765 -0.153581,-0.400247 -0.141427,-0.619656 -0.0078,-0.648438 z m 0.353516,2.806641 c -1.105671,0 -1.449219,0.430235 -1.449219,1.814453 0,1.405602 0.340795,1.814453 1.511719,1.814453 0.536149,0 0.648818,-1.497967 0.136719,-1.814453 -0.181455,-0.112139 -0.330078,0.111806 -0.330078,0.496094 0,0.384298 -0.148661,0.606279 -0.330079,0.49414 -0.596534,-0.368693 -0.386501,-1.814453 0.263672,-1.814453 0.893832,0 1.386719,0.667801 1.386719,1.880859 0,0.598757 0.148661,1.087891 0.330078,1.087891 0.181455,0 0.330078,-0.587948 0.330078,-1.306641 0,-1.315748 -0.931944,-2.652343 -1.849609,-2.652343 z m -1.037109,3.960937 c -0.656542,-0.003 -0.478729,0.592213 0.246093,0.822266 0.412044,0.130771 0.660157,0.500536 0.660157,0.982422 0,0.625338 -0.132628,0.735123 -0.703126,0.585937 -0.501184,-0.131074 -0.660118,-0.05264 -0.552734,0.269531 0.08296,0.248882 0.808152,0.62737 1.611328,0.841797 0.803176,0.214413 1.495658,0.404066 1.541016,0.421875 0.04535,0.01776 0.08398,-0.172841 0.08398,-0.423828 0,-0.250998 -0.297291,-0.53401 -0.660156,-0.628906 -0.394749,-0.103219 -0.660156,-0.450051 -0.660156,-0.863281 0,-0.470741 0.210475,-0.689453 0.660156,-0.689453 1.099725,0 0.738738,-0.606942 -0.578125,-0.972657 -0.680406,-0.188938 -1.421636,-0.344682 -1.648437,-0.345703 z m -2.708985,1.84375 c -0.190637,0.0066 -0.2171,0.355592 -0.279297,1.279297 -0.05529,0.821299 -0.139651,1.494141 -0.1875,1.494141 -0.04785,0 -2.043903,-0.50716 -4.435547,-1.126954 l -4.347656,-1.126953 v 1.945313 c 0,1.846775 0.045,1.956505 0.90625,2.173828 0.498962,0.125896 2.465963,0.61992 4.371094,1.097656 l 3.464844,0.869141 0.09961,1.546875 c 0.0906,1.394491 0.181472,1.548828 0.908203,1.548828 h 0.806641 v -4.435547 c 0,-4.224412 -0.03508,-4.459513 -0.742188,-4.957031 -0.275486,-0.19385 -0.45007,-0.312563 -0.564454,-0.308594 z m 2.533203,1.84961 c -0.175574,0.04931 -0.222026,0.432617 -0.199218,1.169921 0.02117,0.680406 0.106492,0.977679 0.189453,0.660157 0.20107,-0.769471 0.382876,-0.72877 1.154297,0.251953 0.779353,0.99078 1.257812,0.801203 1.257812,-0.498047 0,-0.522905 -0.148661,-1.044115 -0.330078,-1.15625 -0.182589,-0.112857 -0.335258,0.136968 -0.341797,0.558594 -0.01172,0.754099 -0.01853,0.753586 -0.753906,-0.144532 -0.495081,-0.604669 -0.800988,-0.891107 -0.976563,-0.841796 z M 13.025391,63.7168 c -1.271183,-0.117974 -1.113282,1.294269 -1.113282,8.726562 v 8.742188 h 0.798829 c 0.438765,0 1.031357,0.08908 1.318359,0.199219 0.466121,0.178885 0.523437,-0.577053 0.523437,-7.082032 v -7.28125 l 0.742188,0.273438 c 0.720967,0.265814 0.746219,0.438096 0.917969,6.009766 0.142715,4.629044 0.292402,5.958861 0.771484,6.890624 1.161388,2.258828 3.152937,3.203723 4.84375,2.298829 1.365831,-0.730972 1.630859,-1.964386 1.630859,-7.585938 v -5.320312 l -1.3125,-1.832032 -1.3125,-1.833984 -0.08984,6.558594 c -0.08617,6.309354 -0.115327,6.560547 -0.75,6.560547 -0.625954,0 -0.667492,-0.279248 -0.835938,-5.44336 C 18.921494,66.340358 18.358968,65.116493 14.832034,64.177737 14.032021,63.9648 13.449121,63.756125 13.025394,63.7168 Z"
         transform="matrix(0.26458333,0,0,0.26458333,17.991667,17.4625)"
         inkscape:connector-curvature="0" />
      <path
         id="path191"
         style="display:inline;fill:#e7903b;stroke-width:0.329893"
         d="m 40.380859,24.9375 -0.04883,5.003906 c -0.02683,2.752135 0.05369,5.26861 0.177735,5.591797 0.403173,1.050652 0.430122,0.049 0.148437,-5.316406 z m 4.40625,1.017578 3.115235,2.171875 v -0.002 z m 5.576172,8.167969 c -0.01362,-0.0097 -0.01342,0.0074 0,0.05273 0.867988,2.934596 2.257336,9.428246 2.88086,13.460938 l 0.753906,4.875 0.777344,-0.828125 c 0.427963,-0.455547 0.888384,-0.761949 1.021484,-0.679688 0.133115,0.08224 0.428605,1.878876 0.65625,3.992188 0.707917,6.571978 -0.08286,12.131687 -1.996094,14.044922 -0.893265,0.893265 -1.001634,0.920671 -2.033203,0.503906 C 51.73098,69.26501 50.854782,68.408591 50.015625,67.193359 L 48.695312,65.28125 48.599609,67.75 c -0.08973,2.315985 -0.02306,2.586541 1.064453,4.404297 1.552434,2.594657 2.148217,3.295263 3.320313,3.898437 1.239035,0.637633 1.49024,0.637797 2.40625,-0.0039 0.999016,-0.699738 2.266963,-3.285928 2.9375,-5.99414 0.823517,-3.326087 0.733451,-10.105022 -0.197266,-14.931641 -1.00233,-5.19809 -3.636643,-12.964715 -5.998047,-17.681641 -0.945806,-1.889262 -1.674186,-3.250635 -1.769531,-3.318359 z m -10.402343,7.476562 c -0.09376,0.126882 -0.17686,0.210511 -0.244141,0.236329 0.06747,-0.02589 0.150059,-0.108833 0.244141,-0.236329 z m 2.466796,4.947266 c -0.306217,0 -0.49414,0.30853 -0.49414,0.8125 0,0.588355 0.136646,0.762186 0.49414,0.625 0.272164,-0.104428 0.494141,-0.470981 0.494141,-0.814453 0,-0.343484 -0.221992,-0.623047 -0.494141,-0.623047 z m 2.355469,11.875 c -0.362608,0 -0.3821,0.254652 -0.09766,1.320313 0.193701,0.725763 0.395984,1.318359 0.449219,1.318359 0.05325,0 0.09766,-0.592596 0.09766,-1.318359 0,-0.89316 -0.145307,-1.320313 -0.449219,-1.320313 z m -3.351562,9.951172 c -0.36047,-0.0051 -0.762631,-0.0016 -1.199219,0.01367 l -2.753906,0.09766 -0.0957,2.720703 c -0.09574,2.719824 -0.09531,2.722656 0.742188,2.722656 0.804386,0 0.837891,-0.08067 0.837891,-1.980468 0,-1.088648 0.129994,-1.978516 0.287109,-1.978516 0.157115,0 0.610875,0.889868 1.007812,1.978516 0.653708,1.792849 0.810892,1.980468 1.669922,1.980468 1.474239,0 1.984375,-0.760772 1.984375,-2.953125 0,-1.241321 -0.162924,-2.049874 -0.46289,-2.298828 -0.220167,-0.182721 -0.936171,-0.287482 -2.017578,-0.302734 z m 0.148437,1.623047 c 0.0863,-1.84e-4 0.196468,0.04047 0.330078,0.123047 0.424502,0.262337 0.474814,1.828125 0.05859,1.828125 -0.161764,0 -0.392501,-0.388267 -0.511719,-0.863282 -0.180085,-0.717485 -0.135842,-1.08734 0.123047,-1.08789 z M 38.125,74.585938 c -0.8306,0 -0.838119,0.0261 -0.742188,2.388671 l 0.0957,2.386719 1.1875,0.191406 c 1.878043,0.303685 2.419193,-0.04276 2.607422,-1.671875 0.265511,-2.298009 0.990234,-2.074042 0.990234,0.306641 0,1.920707 0.03502,2.007812 0.824219,2.007812 0.804396,0 0.824218,-0.05936 0.824218,-2.408203 0,-2.737602 -0.280449,-3.201171 -1.9375,-3.201171 -1.494527,0 -2.351562,0.802053 -2.351562,2.197265 0,0.60692 -0.148661,1.101563 -0.330078,1.101563 -0.181455,0 -0.330078,-0.74123 -0.330078,-1.648438 0,-1.547074 -0.05079,-1.650391 -0.837891,-1.65039 z m -0.810547,6.269531 v 0.824219 c 0,0.806403 0.05541,0.824218 2.474609,0.824218 h 2.47461 v 1.154297 c 0,1.01167 0.101611,1.15625 0.824219,1.15625 0.722623,0 0.824218,-0.144569 0.824218,-1.15625 0,-1.127138 0.03211,-1.154297 1.320313,-1.154297 1.187614,0 1.318359,-0.08196 1.318359,-0.824218 v -0.824219 h -4.617187 z"
         transform="matrix(0.26458333,0,0,0.26458333,17.991667,17.4625)"
         inkscape:connector-curvature="0" />
    </g>
    <path
       inkscape:connector-curvature="0"
       d="m 37.276795,19.726444 c -0.04989,-0.007 -0.101816,0.01691 -0.182935,0.06821 -0.07461,0.04719 -0.1555,0.04331 -0.220142,-0.01034 -0.0562,-0.04664 -0.18868,-0.06274 -0.294555,-0.03617 -0.417208,0.104713 -0.370477,1.095541 0.05168,1.095541 0.102833,0 0.226313,-0.03925 0.274402,-0.08733 0.06296,-0.06296 0.102681,-0.06296 0.141593,0 0.08729,0.141247 0.353728,0.100274 0.443901,-0.06821 0.124384,-0.232414 0.100192,-0.700278 -0.04341,-0.843876 -0.07278,-0.07278 -0.120639,-0.11086 -0.170532,-0.117823 z m 3.674711,0.06718 -1.185974,0.02222 -1.186491,0.02222 -0.0248,0.257349 -0.02481,0.257349 0.467155,0.02429 0.467155,0.02429 0.02481,0.438216 c 0.03954,0.696766 -0.01288,0.808219 -0.381372,0.808219 -0.473981,0 -0.568441,0.06179 -0.568441,0.371554 v 0.273368 l 0.462504,-0.05168 c 0.254348,-0.02838 0.517076,-0.0981 0.583427,-0.155029 0.09978,-0.08562 0.153528,-0.07707 0.310575,0.05064 0.247184,0.201009 0.579379,0.196576 0.844393,-0.01188 0.210171,-0.165322 0.211874,-0.175841 0.211874,-1.24902 z m -4.270024,0.165364 c 0.182492,0 0.265704,0.267322 0.165365,0.531234 -0.09015,0.237109 -0.203909,0.245805 -0.322461,0.02429 -0.123143,-0.230095 -0.03109,-0.555522 0.157096,-0.555522 z m 0.557589,0.01602 c 0.09069,0.01717 0.141737,0.122748 0.158646,0.326595 0.02118,0.255308 6.09e-4,0.300757 -0.135392,0.300757 -0.08965,0 -0.182801,-0.07074 -0.211357,-0.160714 -0.07465,-0.235191 0.03073,-0.496437 0.188103,-0.466638 z m 2.707328,0.426331 h 0.281637 0.281636 l 0.02377,0.549837 c 0.02528,0.580806 -0.05378,0.777213 -0.312642,0.777213 -0.0815,0 -0.187253,-0.07332 -0.235128,-0.16278 -0.04788,-0.08946 -0.07618,-0.38805 -0.06304,-0.663526 z m -3.089217,0.633036 c -0.393431,-0.03628 -0.686807,0.333684 -0.505912,0.730705 0.07947,0.174415 0.337964,0.295811 0.337964,0.158646 0,-0.02528 -0.05635,-0.102343 -0.125058,-0.171049 -0.06871,-0.0687 -0.113665,-0.201575 -0.100252,-0.295589 0.01956,-0.137091 0.08017,-0.171049 0.305925,-0.171049 0.23269,0 0.28575,0.03227 0.307475,0.185519 0.01445,0.101962 -0.0179,0.238354 -0.07183,0.30334 -0.129327,0.15583 -0.03279,0.245897 0.124024,0.115755 0.0715,-0.05934 0.122473,-0.232407 0.122473,-0.415478 0,-0.268034 -0.03229,-0.326438 -0.221175,-0.399459 -0.05919,-0.02288 -0.117429,-0.03616 -0.173633,-0.04134 z m 0.412378,1.105876 c -0.08185,-4.5e-4 -0.184561,0.0019 -0.312642,0.0067 -0.716503,0.02728 -0.926777,0.199826 -0.293006,0.240296 0.355424,0.02269 0.389017,0.04296 0.412378,0.24598 0.02443,0.21233 0.01109,0.221175 -0.33693,0.221175 -0.345093,0 -0.508069,0.07794 -0.396359,0.189652 0.10288,0.10288 0.729122,0.05138 0.828374,-0.06821 0.05473,-0.06595 0.0831,-0.229144 0.06356,-0.362252 -0.03081,-0.209906 -0.01038,-0.241846 0.151928,-0.241846 0.114994,0 0.187069,-0.04781 0.187069,-0.124023 0,-0.07726 -0.05884,-0.106099 -0.304374,-0.107487 z m 3.483508,0.472839 c -0.198292,0 -0.198541,7.67e-4 -0.221175,0.928109 l -0.02222,0.928625 -0.944645,-0.687296 c -0.519394,-0.377881 -0.962476,-0.68678 -0.984953,-0.68678 -0.02248,0 -0.04134,0.142605 -0.04134,0.317293 0,0.315329 0.0074,0.322415 0.985469,1.002006 0.638676,0.44374 1.062753,0.685739 1.206128,0.687813 l 0.221176,0.0031 V 23.859525 22.61309 Z m 3.415812,0.402043 v 0.522965 0.522449 h 0.478007 0.478007 l 0.02479,0.381889 c 0.0235,0.366301 0.03514,0.383562 0.285771,0.407727 l 0.261483,0.0248 v -0.40721 c 0,-0.398856 0.0051,-0.40721 0.241329,-0.40721 h 0.241329 v 0.563273 0.562756 l -0.824756,10e-4 c -0.453401,6.88e-4 -0.863934,0.02796 -0.912606,0.06046 -0.20006,0.133595 -0.273355,0.450091 -0.273355,1.179775 v 0.769462 h 1.005107 1.005623 v -0.402042 -0.402043 h -0.719336 c -0.731038,0 -0.90525,-0.06871 -0.725537,-0.285254 0.07095,-0.08548 0.279225,-0.117305 0.771011,-0.117305 h 0.673862 v -0.402043 c 0,-0.393194 0.0055,-0.402043 0.241329,-0.402043 h 0.24133 v -1.085722 -1.085721 h -1.246953 z m -7.761283,0.241329 c -0.06635,0 -0.120406,0.05406 -0.120406,0.120406 0,0.06635 0.05406,0.120922 0.120406,0.120922 0.06635,0 0.120923,-0.05457 0.120923,-0.120922 0,-0.06635 -0.05457,-0.120406 -0.120923,-0.120406 z m 0.522965,0.482657 c -0.04424,0 -0.08062,0.108626 -0.08062,0.241329 0,0.203746 -0.03124,0.240813 -0.201021,0.240813 -0.110586,0 -0.201022,0.03638 -0.201022,0.08062 0,0.04424 0.09044,0.08062 0.201022,0.08062 0.169789,0 0.201021,0.03758 0.201021,0.241329 0,0.132703 0.03637,0.241329 0.08062,0.241329 0.04423,0 0.0801,-0.108626 0.0801,-0.241329 0,-0.21447 0.02686,-0.241329 0.241329,-0.241329 0.132703,0 0.241329,-0.03638 0.241329,-0.08062 0,-0.04423 -0.108626,-0.08062 -0.241329,-0.08062 -0.214469,0 -0.241329,-0.02634 -0.241329,-0.240813 0,-0.132703 -0.03586,-0.241329 -0.0801,-0.241329 z m 2.848405,1.740979 c -0.48699,-0.0031 -0.709786,0.03089 -0.864546,0.132292 -0.281082,0.184171 -0.40555,0.678534 -0.347783,1.378211 0.05181,0.627512 0.182386,0.822448 0.626319,0.935343 0.379374,0.09648 1.261551,0.02302 1.48518,-0.123507 0.252377,-0.165363 0.38312,-0.689678 0.326078,-1.308447 -0.08053,-0.873571 -0.242553,-1.007682 -1.225248,-1.013892 z m -3.172416,0.189136 c -0.297035,0 -0.422006,0.622363 -0.191203,0.95188 0.141855,0.202528 0.420321,0.209512 0.519349,0.01344 0.0334,-0.0666 0.09124,-0.26564 0.128674,-0.44235 0.08615,-0.406605 0.298286,-0.440277 0.33538,-0.05323 0.01803,0.188091 -0.01848,0.300261 -0.120923,0.375171 -0.179999,0.131618 -0.07114,0.268395 0.118856,0.149345 0.168278,-0.105441 0.229136,-0.714048 0.08837,-0.883667 -0.05421,-0.06532 -0.192069,-0.107861 -0.306441,-0.09457 -0.182697,0.02124 -0.217296,0.07553 -0.283186,0.446485 -0.05773,0.325047 -0.108276,0.422196 -0.219625,0.422196 -0.08572,0 -0.163961,-0.07907 -0.192753,-0.193787 -0.05119,-0.203966 0.07711,-0.5302 0.208772,-0.5302 0.04268,0 0.07803,-0.03586 0.07803,-0.0801 0,-0.04423 -0.07373,-0.08062 -0.163298,-0.08062 z m 3.179134,0.402043 c 0.336896,0 0.61072,0.0397 0.66766,0.09664 0.125307,0.125307 0.125307,0.968166 0,1.093473 -0.128094,0.128095 -1.207224,0.128095 -1.335319,0 -0.05308,-0.05308 -0.09663,-0.299025 -0.09663,-0.546737 0,-0.247713 0.04355,-0.493655 0.09663,-0.546736 0.05694,-0.05694 0.330763,-0.09664 0.667659,-0.09664 z m -3.378088,0.8847 c -0.06635,0 -0.120406,0.05406 -0.120406,0.120406 0,0.06635 0.05406,0.120923 0.120406,0.120923 0.06635,0 0.120923,-0.05457 0.120923,-0.120923 0,-0.06635 -0.05457,-0.120406 -0.120923,-0.120406 z m 1.166337,0.47594 -0.623218,0.02326 -0.623218,0.02377 -0.0248,0.379305 c -0.01342,0.208608 0.01541,0.452628 0.06356,0.542602 0.09167,0.171288 0.435729,0.226019 0.523999,0.0832 0.03314,-0.05363 0.102468,-0.0529 0.206189,0.0026 0.108483,0.05806 0.204898,0.05728 0.316776,-0.0026 0.133447,-0.07142 0.160714,-0.16816 0.160714,-0.568957 z m 8.15144,0.0016 c -0.0063,0.0034 -0.0104,0.01026 -0.01241,0.02067 -0.01929,0.100116 -0.156491,0.134634 -0.632003,0.158647 -0.759814,0.03837 -0.91209,0.178868 -0.91209,0.840259 0,0.409845 0.01108,0.433048 0.203089,0.433048 0.143653,0 0.225954,-0.06006 0.28112,-0.205155 0.0728,-0.191473 0.108365,-0.203399 0.540536,-0.180868 0.410136,0.02138 0.466087,0.04482 0.488857,0.205156 0.01836,0.129305 0.07981,0.180867 0.215493,0.180867 0.135675,0 0.197125,-0.05156 0.21549,-0.180867 0.01839,-0.129567 0.08865,-0.187968 0.247012,-0.206189 0.121645,-0.014 0.221176,-0.04188 0.221176,-0.06201 0,-0.02013 -0.190125,-0.278301 -0.422196,-0.573608 -0.240292,-0.305767 -0.389739,-0.453621 -0.434083,-0.429948 z m -9.071797,0.246497 c 0.191721,0 0.203919,0.02261 0.180867,0.33538 -0.02604,0.3534 -0.12638,0.455496 -0.288871,0.293005 -0.05363,-0.05363 -0.09767,-0.217311 -0.09767,-0.363285 0,-0.231074 0.02659,-0.2651 0.205673,-0.2651 z m 0.563273,0 c 0.188701,0 0.203741,0.02499 0.180867,0.300757 -0.02663,0.321079 -0.243167,0.462104 -0.336413,0.219108 -0.02768,-0.07214 -0.05064,-0.218593 -0.05064,-0.325562 0,-0.155058 0.04202,-0.194303 0.206189,-0.194303 z m 2.328023,0.652156 c -0.791924,0.02824 -1.005107,0.332073 -1.005107,1.237651 0,0.600497 0.132017,0.984577 0.38499,1.121895 0.299344,0.162489 1.39538,0.164242 1.707906,0.0026 0.293654,-0.151854 0.360245,-0.379477 0.356567,-1.225765 -0.0027,-0.6147 -0.01963,-0.681089 -0.222725,-0.884184 -0.194647,-0.194646 -0.290432,-0.222843 -0.845427,-0.248046 -0.137814,-0.0063 -0.263072,-0.0082 -0.376204,-0.0041 z m -2.284615,0.485759 c -0.06645,-8.47e-4 -0.142001,4.23e-4 -0.226343,0.0041 -0.483757,0.0213 -0.552151,0.04571 -0.655257,0.22996 -0.16033,0.2865 -0.06187,0.783959 0.17415,0.879017 0.09709,0.0391 0.366699,0.07316 0.59893,0.07596 0.32397,0.0039 0.422196,-0.02268 0.422196,-0.115239 0,-0.09375 -0.106751,-0.120922 -0.479557,-0.120922 -0.39198,0 -0.495246,-0.02844 -0.563274,-0.155546 -0.219466,-0.410078 0.0036,-0.64854 0.606165,-0.64854 0.250166,0 0.436666,-0.03604 0.436666,-0.08423 0,-0.0394 -0.11432,-0.06203 -0.313676,-0.0646 z m 2.417424,0.07596 c 0.34384,0.0017 0.736125,0.06326 0.795817,0.157613 0.124827,0.19731 0.09047,0.934782 -0.05013,1.075387 -0.146224,0.146224 -1.030136,0.174196 -1.260904,0.03979 -0.110898,-0.06459 -0.141077,-0.191369 -0.141077,-0.597897 0,-0.444564 0.02407,-0.528502 0.172082,-0.607714 0.08927,-0.04778 0.277904,-0.06823 0.484209,-0.06718 z m 5.186764,0.161747 c -0.25449,-0.0029 -0.519278,0.09318 -0.634071,0.265101 -0.0325,0.04867 -0.05978,0.517931 -0.06046,1.04283 l -0.001,0.953947 0.798918,-0.03204 c 0.637305,-0.0256 0.832025,-0.06226 0.964801,-0.182418 0.149622,-0.135407 0.166396,-0.242547 0.166396,-1.062985 v -0.912605 h -0.197403 c -0.189206,0 -0.198543,0.02438 -0.221176,0.576709 -0.01524,0.371998 -0.05917,0.588338 -0.124023,0.609782 -0.07355,0.02432 -0.100769,-0.107403 -0.100769,-0.491443 0,-0.451256 -0.02514,-0.542458 -0.1788,-0.65009 -0.110914,-0.07769 -0.259684,-0.115067 -0.412377,-0.116789 z m -0.01188,0.916224 c 0.115689,0 0.167733,0.0621 0.186037,0.221175 0.02207,0.191719 -0.0024,0.221175 -0.186037,0.221175 -0.183552,0 -0.208611,-0.02945 -0.18655,-0.221175 0.01831,-0.159071 0.07086,-0.221175 0.18655,-0.221175 z m -7.565945,0.209806 c -0.04603,-0.0059 -0.09795,0.01943 -0.195854,0.07183 -0.09722,0.05203 -0.170052,0.211541 -0.205672,0.449068 -0.05679,0.378679 -0.235715,0.549036 -0.363802,0.346749 -0.121306,-0.191577 -0.0808,-0.460814 0.09353,-0.623217 0.102241,-0.09525 0.134376,-0.175594 0.0832,-0.207223 -0.04595,-0.0284 -0.156931,0.02206 -0.247013,0.112138 -0.216221,0.216221 -0.217931,0.673005 -0.0031,0.887801 0.191452,0.191451 0.271322,0.199449 0.426848,0.04393 0.06416,-0.06416 0.141506,-0.283417 0.172082,-0.487309 0.04311,-0.287493 0.08592,-0.365031 0.190686,-0.345198 0.184749,0.03497 0.234468,0.529375 0.05994,0.596346 -0.134461,0.0516 -0.175945,0.272334 -0.05116,0.272334 0.299502,0 0.450367,-0.750076 0.201021,-0.999422 -0.07452,-0.07452 -0.114679,-0.111916 -0.160713,-0.117822 z m 1.911511,0.99012 c -0.07678,0.0054 -0.151021,0.03224 -0.248563,0.08268 -0.291103,0.150535 -0.411598,0.510426 -0.405661,1.210778 0.0052,0.616768 0.142981,1.013694 0.397392,1.146184 0.243286,0.126696 0.64687,0.06728 0.782898,-0.115239 0.09233,-0.123895 0.109515,-0.123885 0.24753,10e-4 0.213343,0.193073 0.597188,0.169487 0.802535,-0.04909 0.203575,-0.216696 0.30684,-0.900319 0.221692,-1.468127 -0.09745,-0.64982 -0.637068,-0.97333 -1.035079,-0.620634 -0.110693,0.09809 -0.168779,0.111868 -0.192236,0.04496 -0.01851,-0.05281 -0.155636,-0.136259 -0.304891,-0.185518 -0.109174,-0.03603 -0.188838,-0.05238 -0.265617,-0.04703 z m 4.970748,0.449058 v 0.938444 c 0,1.207452 0.01889,1.232999 0.921909,1.232999 0.439182,0 0.707282,-0.0378 0.811834,-0.114205 0.119507,-0.08733 0.16559,-0.242945 0.196371,-0.663525 l 0.04031,-0.54932 0.261482,-0.02532 c 0.256194,-0.0247 0.260967,-0.03305 0.260967,-0.422196 V 31.62081 h -1.246437 z m -4.854484,0.07958 c 0.146378,0.0012 0.233929,0.232072 0.253731,0.680062 0.02978,0.673602 -0.162038,0.959857 -0.450101,0.671794 -0.150063,-0.150063 -0.125835,-1.146242 0.03101,-1.276408 0.06156,-0.05109 0.116571,-0.07586 0.165364,-0.07545 z m 0.997355,0.08113 c 0.192479,0 0.255608,0.229303 0.222726,0.808736 -0.02179,0.38396 -0.04717,0.441025 -0.205672,0.463537 -0.135872,0.0193 -0.202939,-0.03065 -0.268718,-0.201021 -0.08206,-0.212546 -0.05022,-0.833304 0.05116,-0.997355 0.02507,-0.04057 0.115488,-0.0739 0.200504,-0.0739 z m -3.059761,0.313676 -0.442867,0.02429 c -0.54112,0.02944 -0.616047,0.170181 -0.119889,0.22531 0.299282,0.03325 0.366321,0.07153 0.387573,0.221175 0.04372,0.307867 0.175183,0.198748 0.175183,-0.145211 z m 7.847065,0.329695 h 0.528134 l -0.02532,0.221175 c -0.02397,0.208229 -0.05182,0.222712 -0.471289,0.244946 -0.245047,0.01299 -0.470877,-0.0022 -0.502296,-0.03359 -0.03142,-0.03142 -0.05736,-0.141732 -0.05736,-0.244946 0,-0.177546 0.02849,-0.187586 0.528132,-0.187586 z m -8.253242,0.492993 c -0.03994,-9.52e-4 -0.08295,8.2e-4 -0.129191,0.0047 -0.249278,0.02063 -0.320303,0.06572 -0.382406,0.243396 -0.05153,0.147433 -0.04593,0.283982 0.01705,0.422197 0.08702,0.190979 0.257348,0.283187 0.257348,0.139526 0,-0.03539 -0.03936,-0.103433 -0.08733,-0.151412 -0.128288,-0.128288 -0.05551,-0.461928 0.107487,-0.492993 0.117437,-0.02238 0.141077,0.03417 0.141077,0.341064 0,0.334334 0.0173,0.367937 0.192236,0.367937 0.210001,0 0.289905,-0.132601 0.289905,-0.479558 0,-0.26268 -0.126605,-0.388069 -0.406177,-0.394808 z m 0.104903,0.170532 c 0.05529,0.01843 0.100252,0.136153 0.100252,0.261483 0,0.125331 -0.04496,0.243052 -0.100252,0.261483 -0.06824,0.02275 -0.100769,-0.06131 -0.100769,-0.261483 0,-0.200172 0.03253,-0.28423 0.100769,-0.261483 z m -0.09353,0.894519 c -0.393431,-0.03628 -0.686807,0.333684 -0.505912,0.730705 0.07947,0.174415 0.337964,0.295812 0.337964,0.158647 0,-0.02528 -0.05635,-0.102343 -0.125058,-0.171049 -0.06871,-0.06871 -0.113665,-0.201575 -0.100252,-0.295589 0.01956,-0.13709 0.08017,-0.171049 0.305925,-0.171049 0.23269,0 0.28575,0.03227 0.307475,0.185518 0.01445,0.101962 -0.0179,0.238355 -0.07183,0.303341 -0.129327,0.155829 -0.03279,0.245895 0.124024,0.115755 0.0715,-0.05934 0.122473,-0.232407 0.122473,-0.415479 0,-0.268033 -0.03229,-0.326437 -0.221175,-0.399458 -0.05919,-0.02288 -0.117429,-0.03616 -0.173633,-0.04134 z m 2.423625,0.05323 c -0.06696,-0.0013 -0.162991,0.0256 -0.298173,0.077 -0.285419,0.108516 -0.443901,0.524856 -0.443901,1.166854 0,1.011654 0.385566,1.432791 1.072803,1.171505 0.238594,-0.09071 0.344041,-0.390043 0.417545,-1.185975 0.03772,-0.408464 0.08903,-0.591312 0.176217,-0.624768 0.229188,-0.08795 0.344165,0.114688 0.344165,0.606165 0,0.387567 -0.02804,0.485033 -0.160714,0.556038 -0.11478,0.06143 -0.160713,0.168035 -0.160713,0.373104 0,0.272582 0.01139,0.284793 0.221175,0.235128 0.121645,-0.0288 0.281679,-0.124145 0.35605,-0.211873 0.24705,-0.291427 0.282276,-1.429116 0.05736,-1.857768 -0.10388,-0.197981 -0.566201,-0.330236 -0.819071,-0.234094 -0.290258,0.110356 -0.385135,0.331382 -0.437183,1.019576 -0.05181,0.684991 -0.173513,0.925722 -0.398942,0.788065 -0.112219,-0.06853 -0.151151,-0.210832 -0.169499,-0.623217 -0.02247,-0.505114 -0.01261,-0.539716 0.180868,-0.627869 0.159875,-0.07284 0.204638,-0.152009 0.204638,-0.361735 0,-0.182052 -0.03103,-0.263904 -0.142626,-0.266134 z m 5.465299,0.02687 c -0.03291,0.0015 -0.06368,0.0055 -0.09147,0.0124 -0.442285,0.110329 -0.485759,0.223294 -0.485759,1.264522 v 0.960149 l 0.851112,-0.02739 c 0.730776,-0.02355 0.866891,-0.04941 0.964798,-0.183451 0.08249,-0.112943 0.114204,-0.407572 0.114204,-1.065568 v -0.910022 h -0.201019 c -0.193585,0 -0.201023,0.01926 -0.201023,0.516247 0,0.542912 -0.05011,0.771013 -0.169497,0.771013 -0.0395,0 -0.07219,-0.226347 -0.07286,-0.502812 -5.29e-4,-0.276465 -0.02861,-0.545888 -0.06201,-0.598413 -0.08488,-0.133498 -0.416081,-0.247382 -0.646472,-0.236678 z m 0.106452,0.895552 c 0.115689,0 0.167733,0.0621 0.186037,0.221176 0.02207,0.191719 -0.0024,0.221175 -0.186037,0.221175 -0.183552,0 -0.20861,-0.02945 -0.18655,-0.221175 0.01831,-0.159072 0.07086,-0.221176 0.18655,-0.221176 z m -8.037751,0.124024 c -0.389054,-0.01273 -0.668523,0.387407 -0.444417,0.806152 0.08812,0.164662 0.238228,0.211191 0.238228,0.0739 0,-0.04483 -0.0418,-0.148468 -0.09302,-0.230477 -0.112554,-0.180229 -0.03908,-0.411861 0.130741,-0.411861 0.09235,0 0.123507,0.09035 0.123507,0.361734 0,0.294897 0.02674,0.362252 0.144694,0.362252 0.2251,0 0.337447,-0.165689 0.337447,-0.496093 0,-0.217047 -0.04403,-0.326343 -0.155546,-0.386023 -0.09663,-0.05172 -0.191855,-0.07664 -0.281637,-0.07958 z m 0.156063,0.237712 c 0.08043,0 0.120406,0.08048 0.120406,0.241328 0,0.160853 -0.03998,0.241329 -0.120406,0.241329 -0.08043,0 -0.120923,-0.08048 -0.120923,-0.241329 0,-0.160852 0.04049,-0.241328 0.120923,-0.241328 z m 0.522449,0.8847 c -0.04424,0 -0.0801,0.05406 -0.0801,0.120406 0,0.06635 0.03586,0.120923 0.0801,0.120923 0.04423,0 0.08062,-0.05457 0.08062,-0.120923 0,-0.06635 -0.03637,-0.120406 -0.08062,-0.120406 z m -0.72347,0.08062 c -0.268087,0 -0.482658,0.03541 -0.482658,0.0801 0,0.04468 0.214571,0.08062 0.482658,0.08062 0.268087,0 0.482141,-0.03592 0.482141,-0.08062 0,-0.04468 -0.214054,-0.0801 -0.482141,-0.0801 z m 0.458886,0.391708 c -0.04872,-0.02034 -0.177706,0.02068 -0.428914,0.131775 -0.248793,0.110028 -0.466044,0.199987 -0.482658,0.199987 -0.01661,0 -0.02997,0.04986 -0.02997,0.110588 0,0.08081 0.670834,0.455531 0.944645,0.527616 0.01106,0.0029 0.02015,-0.04459 0.02015,-0.10542 0,-0.06083 -0.171408,-0.181 -0.381372,-0.267167 l -0.381889,-0.15658 0.381889,-0.145727 c 0.209964,-0.08019 0.381372,-0.194981 0.381372,-0.254765 0,-0.02012 -0.007,-0.03353 -0.02325,-0.04031 z m 3.722771,0.247013 -1.185974,0.02222 -1.186491,0.02274 -0.0248,0.72347 c -0.0466,1.356792 0.104894,1.729094 0.703833,1.729094 0.234753,0 0.349332,-0.04533 0.440283,-0.175184 0.115754,-0.165262 0.131584,-0.167689 0.272335,-0.04031 0.187245,0.169455 0.568115,0.174014 0.802535,0.0098 0.169669,-0.118841 0.178284,-0.179872 0.178284,-1.208195 z m -1.930115,0.567407 h 0.284737 0.284737 l -0.02325,0.663525 c -0.02265,0.643362 -0.0295,0.664221 -0.227376,0.687297 -0.112241,0.01309 -0.229962,-0.0021 -0.261483,-0.03359 -0.03152,-0.03152 -0.05736,-0.340794 -0.05736,-0.687297 z m 0.965315,0 h 0.284738 0.284737 l -0.02325,0.623218 c -0.02087,0.553926 -0.04174,0.625865 -0.185519,0.646472 -0.08899,0.01275 -0.206189,-0.02171 -0.260966,-0.07648 -0.05964,-0.05965 -0.09973,-0.31894 -0.09973,-0.646472 z m -3.2675,0.266134 c -0.343203,0.03368 -0.542392,0.423264 -0.348816,0.784965 0.08276,0.154634 0.238228,0.213927 0.238228,0.09095 0,-0.03539 -0.03936,-0.103433 -0.08733,-0.151412 -0.128288,-0.128288 -0.0555,-0.461928 0.107487,-0.492993 0.117437,-0.02238 0.141077,0.03417 0.141077,0.341065 0,0.300575 0.02639,0.367936 0.144694,0.367936 0.213969,0 0.337803,-0.161875 0.336413,-0.438733 -0.0017,-0.330292 -0.08106,-0.434481 -0.376204,-0.49351 -0.05417,-0.01084 -0.106517,-0.01308 -0.155546,-0.0083 z m 0.251664,0.216524 c 0.07989,0 0.120406,0.08005 0.120406,0.236678 0,0.23609 -0.09233,0.3676 -0.189652,0.270268 -0.107032,-0.107032 -0.05239,-0.506946 0.06925,-0.506946 z m 0.260966,0.877466 -0.445968,0.02377 c -0.567501,0.03031 -0.68957,0.224793 -0.141076,0.224793 0.259538,0 0.382405,0.03605 0.40876,0.120407 0.02073,0.06635 0.05472,0.174976 0.07545,0.241329 0.07053,0.225764 0.117427,0.121574 0.110071,-0.244947 z"
       style="fill:#9c9c9c;stroke-width:0.0804262"
       id="path163" />
  </g>
</svg>
